<svg enable-background="new 0 0 750 750" viewBox="0 0 750 750" xmlns="http://www.w3.org/2000/svg" xmlns:xlink="http://www.w3.org/1999/xlink"><clipPath id="a"><circle cx="374.4" cy="374.3" r="374.6"/></clipPath><g clip-path="url(#a)"><path d="m-4 238.5c0-36.7 0-73.5 0-110.2.2-1.4.6-2.8.7-4.2 2.7-46.6 5.3-93.2 8-139.8.1-1.2 0-2.5 0-3.9-2.2 0-3.8 0-6 0-.4 5.9-.7 11.6-1.1 17.3-.5 7-1 14.1-1.6 21.1 0-13.4 0-26.7 0-40.1h792.9v791.3c-264.3 0-528.6 0-792.9 0 0-.7 0-1.4 0-2.2h5.2c25.9-262.6 51.6-524.8 77.5-787.3-2.4 0-4.2 0-6.1 0-.2 1-.5 1.9-.6 2.8-1.7 17.2-3.4 34.5-5 51.7-2.4 24.2-4.7 48.3-7.1 72.5-2.9 29.5-5.8 59-8.7 88.5-2.3 23.6-4.6 47.3-6.9 70.9-3.5 35.5-7 71-10.5 106.5-2.8 28.3-5.5 56.7-8.3 85-3 30.3-6 60.6-9 90.9-2.8 28.7-5.6 57.4-8.4 86.2-3 30.7-5.9 61.4-9 92-.8 8.4-2 16.9-3 25.3 0-8.1 0-16.3 0-24.4.4-2.8 1.1-5.6 1.3-8.5 3-32.9 5.8-65.9 8.8-98.8 3.3-37.4 6.8-74.8 10.1-112.1 2.9-32.1 5.7-64.3 8.6-96.5 2.9-32.1 5.9-64.3 8.8-96.4s5.7-64.3 8.6-96.5c3.4-37.2 6.8-74.5 10.2-111.7 3.6-40.1 7.2-80.2 10.8-120.4.2-2.3.3-4.6.5-7.1-2.3 0-4 0-5.9 0-.2.7-.3 1.2-.4 1.7-3.7 40.6-7.3 81.3-11 121.9-3.6 39.5-7.2 78.9-10.7 118.4-2.9 32.5-5.7 65.1-8.6 97.6-3.5 38.4-7 76.8-10.5 115.2-2.9 32.3-5.8 64.6-8.7 96.8-3 33.3-5.9 66.7-9 100-.8 9-1.9 18-2.9 26.9 0-11.8 0-23.6 0-35.4.2-1 .6-2 .7-3 1.9-22.5 3.7-45 5.5-67.5 2.9-35.3 5.7-70.6 8.6-105.9 2.8-34.4 5.7-68.8 8.5-103.2 2.9-35.2 5.6-70.4 8.5-105.5 3.4-41.6 6.9-83.2 10.3-124.7 3.6-43.2 7-86.3 10.6-129.5.1-1.2 0-2.5 0-3.8-2.2 0-3.9 0-6 0-.6 7.2-1.1 14.2-1.7 21.2-3.4 41.1-6.9 82.1-10.3 123.2-3.1 37-6 74-9 111-2.6 32.2-5.3 64.3-7.9 96.5-2.5 30.5-4.9 60.9-7.4 91.4-2.5 30.9-5 61.7-7.6 92.6-.9 10.3-2 20.6-3 30.9 0-17.3 0-34.6 0-52 .2-1 .6-2 .7-3 .8-10.5 1.6-20.9 2.4-31.4 2.8-39 5.6-78 8.5-117 2.9-39.2 5.9-78.5 8.8-117.7 2.9-39.1 5.6-78.2 8.5-117.4 3-41.6 6.1-83.2 9.2-124.8.1-1.1 0-2.3 0-3.5-2.1 0-3.9 0-6 0-.2 2.8-.4 5.4-.6 8-1.2 16.9-2.4 33.8-3.7 50.6-2.9 39.8-5.9 79.5-8.9 119.3-2.8 38.1-5.5 76.1-8.3 114.2-3.1 42-6.2 84-9.3 126-.3 3.9-.9 7.8-1.3 11.6 0-25.2 0-50.4 0-75.6.3-1.4.6-2.8.7-4.2.5-6.9.8-13.9 1.3-20.8 2.4-36.7 4.9-73.3 7.3-110 2.3-35.6 4.6-71.2 6.9-106.8 2.5-35.7 4.9-71.4 7.3-107.1.1-1.6 0-3.3 0-5.1-2.1 0-3.9 0-5.9 0-.1 1.2-.3 2.2-.4 3.3-2.3 35.6-4.7 71.2-7 106.8-3 45.7-5.9 91.4-8.9 137.1-.2 3.6-.8 7.2-1.2 10.8zm239.3 528.8c6.4 1 6.4 1 8.1-4.3 2.3-7 4.7-13.9 7-20.9 10.8-31.9 21.5-63.8 32.3-95.7 10.8-32 21.5-64.1 32.3-96.1 11.2-33.4 22.5-66.8 33.8-100.2 11.9-35.4 23.8-70.8 35.7-106.2 9.7-28.8 19.4-57.6 29.1-86.4 10.8-32 21.6-64.1 32.3-96.1 9.2-27.3 18.3-54.6 27.5-81.9 9.2-27.4 18.5-54.8 27.7-82.2 1.8-5.4 3.6-10.8 5.5-16.6-2.4 0-4.3 0-6.6 0-88.2 261.9-176.4 524-264.7 786.6zm273-786.9c-86.1 262.3-172.1 524.5-258.2 786.8 4.5 1.3 6.7.5 8-3.9 2.8-10 6.3-19.7 9.6-29.5 11.8-35.9 23.6-71.7 35.4-107.6 12.8-39.1 25.6-78.2 38.4-117.3 11.4-34.9 22.9-69.7 34.4-104.6 9.6-29.3 19.2-58.5 28.8-87.8 10.9-33.1 21.8-66.2 32.6-99.4 8.7-26.4 17.4-52.8 26-79.2 8.6-26.1 17.1-52.3 25.7-78.4 7.2-21.9 14.4-43.7 21.6-65.6 1.4-4.4 2.7-8.8 4.1-13.5-2.7 0-4.5 0-6.4 0zm-281.1 786.7c4.9 1.8 7-.1 8.1-4 .9-3.4 2.1-6.7 3.2-10.1 7.6-23.3 15.1-46.6 22.7-69.8 10.7-32.7 21.6-65.4 32.4-98.2 11.3-34.5 22.5-69 33.9-103.5 11.8-35.9 23.6-71.7 35.4-107.5 12.4-37.7 24.7-75.5 37-113.2 13.9-42.3 27.9-84.6 41.8-127 15.2-46.2 30.3-92.4 45.5-138.6 1.6-4.8 3-9.6 4.8-15.4-3.2 1.3-6.2-1.3-7.6 3.1-5.2 16.6-10.7 33.2-16.1 49.7-14.5 44.1-29 88.1-43.5 132.2-18.4 55.9-36.7 111.8-55 167.7-17.6 53.7-35.1 107.4-52.7 161-12.8 39.1-25.7 78.2-38.6 117.3-15.8 48-31.5 96-47.3 144-1.6 4.1-2.8 8.2-4 12.3zm243.3-786.7c-84 262.5-167.8 524.6-251.9 787.3 3.2-.4 6.1 1.7 7.4-2.2 3.6-11.3 7.3-22.7 10.9-34 9.7-30.3 19.3-60.6 28.9-90.9 10.8-33.7 21.7-67.3 32.4-101 11.8-36.9 23.6-73.9 35.4-110.9 11.8-36.9 23.7-73.9 35.5-110.8 10.8-33.7 21.5-67.4 32.3-101.1 11.3-35.2 22.6-70.4 33.9-105.6 12.5-39.1 25-78.2 37.5-117.2 1.4-4.4 2.7-8.8 4.1-13.6-2.6 0-4.4 0-6.4 0zm52.5 0c-3.5.1-6.2-1.6-7.6 3.2-4.4 15.2-9.4 30.2-14.3 45.3-8.2 25.4-16.4 50.9-24.5 76.3-8.7 27.2-17.4 54.4-26.1 81.6-10.3 32.2-20.6 64.4-30.9 96.6-10.1 31.7-20.3 63.4-30.4 95.1-10.8 33.8-21.7 67.6-32.5 101.5-10.3 32.1-20.5 64.2-30.8 96.2-9.7 30.3-19.4 60.7-29.1 91-8.7 27.1-17.4 54.2-26 81.3-2 6.2-3.9 12.4-5.8 18.6 4.5 1.6 7.1.5 7.8-3.9.1-.6.3-1.3.5-1.9 10.2-32 20.4-63.9 30.7-95.9 9.7-30.2 19.4-60.4 29-90.6 9.7-30.5 19.5-60.9 29.2-91.4s19.5-60.9 29.2-91.4c9.7-30.3 19.4-60.7 29.1-91 8.7-27.1 17.3-54.2 26-81.3 8.6-27 17.3-53.9 25.9-80.9 8.2-25.6 16.3-51.2 24.5-76.7 7.2-22.3 14.4-44.6 21.6-66.9 1.5-4.7 2.9-9.5 4.5-14.8zm-312.5 786.9c6.3.8 6.3.8 7.9-4.5 3.7-12.1 7.5-24.2 11.3-36.3 7.1-22.7 14.3-45.5 21.4-68.2 9.8-31.4 19.6-62.8 29.4-94.2 9.7-31 19.4-62.1 29-93.1 10.2-32.8 20.4-65.6 30.6-98.4 10.3-33 20.6-66.1 30.9-99.1 9.2-29.5 18.4-59.1 27.6-88.6 9.1-29.3 18.3-58.6 27.4-87.8 9.7-31.2 19.4-62.3 29.1-93.5 2.4-7.6 4.7-15.2 7.1-22.8-6.3-1.1-6.3-1.1-7.9 4.2-1.5 4.9-3.1 9.8-4.6 14.6-8.7 27.9-17.4 55.8-26.1 83.7-10.2 32.8-20.5 65.6-30.7 98.3-9.7 31-19.3 62.1-29 93.1-9.3 29.8-18.6 59.6-27.9 89.3-8.1 25.9-16.1 51.8-24.2 77.7-8.7 27.9-17.4 55.8-26.1 83.7-8.2 26.1-16.3 52.3-24.5 78.4-7.1 22.8-14.1 45.5-21.2 68.3-6.6 21.1-13.2 42.2-19.8 63.3-3.2 10.7-6.4 21.2-9.7 31.9zm69.1-.1c6.1 1.2 6.2 1 7.8-4.1 8.1-26.2 16.3-52.3 24.4-78.5 9.7-31 19.4-62.1 29-93.1 9.2-29.4 18.3-58.8 27.5-88.2s18.4-58.8 27.6-88.2c9.8-31.4 19.6-62.8 29.3-94.2 8.6-27.7 17.3-55.3 25.9-83 9.2-29.4 18.3-58.8 27.5-88.2 8.7-27.8 17.3-55.5 26-83.3 7.2-23.1 14.5-46.2 21.7-69.3 1.7-5.4 3.3-10.9 5-16.6-3.4-.1-6.3-1.4-7.7 3.1-5.8 19.4-11.8 38.8-17.9 58.1-8.1 26.1-16.4 52.2-24.5 78.4-8.7 28-17.5 56.1-26.2 84.1-8.7 27.8-17.3 55.6-26 83.3-9.2 29.4-18.3 58.8-27.5 88.2-9.7 31.2-19.4 62.3-29.1 93.5-9.7 31-19.3 62.1-29 93.1-9.2 29.5-18.5 59-27.7 88.6-9.8 31.4-19.6 62.8-29.4 94.2-2.2 7.3-4.4 14.7-6.7 22.1zm253.5-786.8c-79.6 262.2-159.2 524.5-238.8 786.8 6.1 1.1 6.1 1.1 7.7-3.9.3-1 .7-2 1-3 9.7-32 19.3-64 29.1-96 9.2-30.4 18.5-60.7 27.7-91 8.7-28.7 17.4-57.4 26.1-86.2 8.7-28.6 17.3-57.2 26-85.8 8.6-28.5 17.3-56.9 25.9-85.4 8.1-26.8 16.3-53.7 24.4-80.5 8.6-28.5 17.3-56.9 25.9-85.4 8.6-28.3 17.2-56.7 25.8-85 7.2-23.8 14.5-47.6 21.7-71.4 1.3-4.3 2.5-8.6 3.8-13.2-2.3 0-4.1 0-6.3 0zm-330.9 786.9c6.4.9 6.6.8 8.1-4.8.4-1.5 1-3 1.4-4.5 6.5-21.7 13-43.4 19.6-65 8.7-28.6 17.4-57.1 26.1-85.7 8.8-28.8 17.5-57.7 26.2-86.5 8.1-26.6 16.2-53.2 24.2-79.8 8.7-28.6 17.3-57.2 26-85.8 8.7-28.7 17.4-57.4 26.2-86.2 8.6-28.3 17.2-56.7 25.8-85 9.2-30.2 18.4-60.4 27.6-90.7 9.3-30.6 18.6-61.2 27.9-91.8 2.1-6.9 4.1-13.8 6.3-21-2.5 0-4.4 0-6.5 0-79.7 262.2-159.3 524.3-238.9 786.8zm339.2-786.9c-77.5 262.6-154.9 524.7-232.4 787.1h6.6c77.4-262.4 154.8-524.5 232.3-787.1-2.8 0-4.6 0-6.5 0zm-115.2.1c-77.4 262.3-154.8 524.4-232.3 786.7 4.4 1.4 6.8.6 7.8-3.7.9-4.3 2.5-8.5 3.7-12.8 5.5-18.7 10.9-37.4 16.4-56.2 7.1-24 14.2-48 21.3-72 8.2-27.6 16.3-55.3 24.5-83 8.1-27.5 16.3-55 24.4-82.6 8.6-29.3 17.2-58.6 25.9-87.9 8.7-29.4 17.4-58.8 26.1-88.2 8.6-29.3 17.3-58.6 25.9-87.9 8.7-29.3 17.3-58.6 26-87.8 10.3-34.9 20.6-69.9 30.9-104.8 1.9-6.5 3.8-13 5.8-19.9-2.4.1-4.3.1-6.4.1zm-102.4 786.8c6.4.8 6.4.8 7.8-4.6.4-1.5.9-3 1.4-4.5 8.6-30.1 17.2-60.2 25.9-90.3 8.7-30.2 17.4-60.4 26.1-90.7 8.6-30.1 17.2-60.2 25.9-90.3 8.1-28.3 16.3-56.7 24.5-85 9.2-32.1 18.4-64.3 27.6-96.4 8.7-30.2 17.4-60.5 26.1-90.7 7.6-26.5 15.2-52.9 22.7-79.4 7.1-24.8 14.2-49.6 21.4-74.4 6.1-21.3 12.3-42.5 18.4-63.8 1.6-5.4 3-10.9 4.7-17-3.1.6-6-1.6-7.1 2.2-5.3 18.6-10.6 37.2-15.9 55.9-6.5 22.8-13.1 45.6-19.6 68.4-7.1 24.8-14.3 49.6-21.4 74.4-7.1 24.7-14.2 49.4-21.3 74.1-7.6 26.5-15.2 52.9-22.8 79.4s-15.2 52.9-22.7 79.4c-7.6 26.6-15.3 53.1-22.9 79.7-8.1 28.3-16.3 56.7-24.4 85-7.6 26.6-15.3 53.2-22.9 79.7-7.6 26.6-15.3 53.2-22.9 79.7-3 9.6-5.7 19.3-8.6 29.2zm94.1-786.6c-6.3-.8-6.3-.8-7.8 4.6-.7 2.7-1.6 5.3-2.3 7.9-8.1 28.1-16.2 56.2-24.2 84.3-7.7 26.7-15.3 53.4-23 80.1-7.6 26.5-15.2 52.9-22.8 79.4-7.6 26.6-15.2 53.2-22.9 79.7-7.6 26.3-15.2 52.6-22.7 79-7.2 24.9-14.3 49.9-21.4 74.8-7.6 26.5-15.2 52.9-22.8 79.4-7.1 24.7-14.2 49.4-21.2 74.1-6.1 21.2-12.1 42.3-18.2 63.5-6.1 21.1-12.2 42.3-18.3 63.4-1.6 5.5-3 11-4.8 17.4 3.1-1.2 6.1 1.3 7.3-2.9 4.1-14.6 8.3-29.2 12.5-43.8 6.5-22.9 13-45.9 19.6-68.8 7.1-24.8 14.3-49.6 21.4-74.4s14.2-49.6 21.4-74.5c7.6-26.6 15.3-53.2 22.9-79.7 7.6-26.3 15.1-52.7 22.7-79 8.2-28.5 16.4-56.9 24.5-85.4 7.6-26.5 15.2-52.9 22.8-79.4 8.7-30.2 17.4-60.5 26.1-90.7 7.7-26.7 15.4-53.4 23-80.1 2.7-9.5 5.4-19.1 8.2-28.9zm-240.5 786.4c5.5 1.3 6.4.8 7.5-3.3 5.4-19.8 10.9-39.6 16.4-59.4 6.6-23.6 13.2-47.2 19.8-70.8 7.1-25.4 14.1-50.8 21.2-76.1 8.1-29.2 16.3-58.3 24.5-87.5 8.7-31.1 17.2-62.1 25.9-93.2s17.4-62.1 26.1-93.1c8.7-31.1 17.2-62.1 25.9-93.2s17.4-62.1 26.1-93.1c9.3-33.5 18.7-66.9 28-100.4 1.5-5.4 2.9-10.8 4.4-16.3-4-.8-6.4-.9-7.5 3.8-3.3 13.5-7.3 26.8-11.1 40.2-7.2 25.8-14.4 51.5-21.6 77.3-6.5 23.2-12.9 46.5-19.4 69.7-7.2 25.6-14.3 51.2-21.5 76.9-7.1 25.4-14.1 50.8-21.2 76.1-7.1 25.4-14.2 50.7-21.2 76.1-6.5 23.5-13.1 47-19.6 70.5-6.6 23.5-13.1 47-19.7 70.4-7.6 27.4-15.3 54.8-22.9 82.2-6.1 21.8-12.1 43.7-18.2 65.5-5 17.9-10.1 35.8-15.1 53.7-2.4 7.9-4.6 16-6.8 24zm161.3.1c6 1.1 6 1.1 7.4-3.7 2.8-9.8 5.6-19.7 8.3-29.5 6.6-23.5 13.1-47 19.6-70.4 6.5-23.5 13.1-47 19.6-70.5 7.1-25.4 14.2-50.7 21.3-76.1 7.6-27.4 15.3-54.8 22.9-82.2 7.1-25.5 14.2-51 21.3-76.5 7.6-27.1 15.1-54.3 22.7-81.4 7.1-25.5 14.2-51 21.3-76.5s14.2-51 21.3-76.5c6-21.7 12-43.4 18.1-65.1 5-17.9 10.1-35.8 15.1-53.7 2.2-8 4.4-16.1 6.6-24.1-5.5-1.3-6.4-.9-7.5 3.2-5.4 19.8-10.9 39.6-16.4 59.4-6.6 23.6-13.2 47.2-19.8 70.8-7.6 27.3-15.1 54.5-22.8 81.8-7.6 27.4-15.3 54.8-23 82.2-8.1 29-16.1 58.1-24.2 87.1-8.1 29.2-16.4 58.3-24.5 87.5-7.6 27.4-15.2 54.8-22.8 82.2-9.7 34.7-19.4 69.4-29.1 104.1-10.4 37.4-20.9 74.7-31.3 112.1-1.3 5.2-2.7 10.5-4.1 15.8zm43.3-786.7c-71 262.3-141.9 524.5-213 787h6.5c71-262.3 142-524.5 213-787-2.5 0-4.4 0-6.5 0zm-22.2 787c71-262.5 142-524.6 213-787.1-2.6 0-4.4 0-6.5 0-71 262.3-142 524.5-213 787.1zm13.8-786.8c-6.3-.9-6.3-.9-7.7 4.5-2.7 10.5-5.5 21.1-8.3 31.6-9.7 36.9-19.5 73.8-29.2 110.7-10.7 41-21.4 81.9-32.1 122.9-10.5 39.9-21 79.9-31.4 119.8-12.1 46-24.1 92.1-36.2 138.1-11.8 45-23.7 90-35.5 135-10 38-20 76-30 114-.9 3.3-1.5 6.7-2.3 10 4.4 1.2 6.9.4 7.3-4.1.2-2.1 1-4.1 1.5-6.1 5-19.1 10.1-38.2 15.1-57.4 6-22.9 12-45.9 18-68.8 6.6-25.1 13.2-50.2 19.8-75.3 7.1-27.1 14.2-54.3 21.4-81.4 6.6-25 13.1-50 19.7-74.9 6.6-25 13.1-50 19.7-74.9 6.6-25 13.1-49.9 19.7-74.9 7.1-27.1 14.2-54.3 21.4-81.4 6.5-24.9 13-49.7 19.6-74.5 6.6-25.1 13.2-50.2 19.8-75.3 3.2-12.5 6.4-24.9 9.7-37.6zm207.2.1c-4.5-1.4-7-.6-7.4 3.9-.2 1.9-.9 3.8-1.4 5.7-5.5 21-11.1 42-16.6 63-6.6 25.1-13.1 50.2-19.7 75.3-7.1 27-14.3 54-21.3 81-6.6 25.1-13.1 50.2-19.7 75.3-6.6 25.2-13.2 50.5-19.9 75.7-6.5 24.9-13 49.7-19.6 74.6-7.7 29.2-15.3 58.3-23 87.5-6.6 25-13.1 49.9-19.7 74.9-6.6 25.1-13.1 50.2-19.7 75.3-6 22.9-12.1 45.9-18.1 68.8-2.2 8.4-4.4 16.9-6.6 25.4 6.3 1 6.2 1 7.6-4.5 3.3-12.7 6.6-25.4 10-38l21.3-81c6.6-25 13-50 19.6-74.9 6.6-25 13.2-49.9 19.7-74.9 7.1-27 14.1-54 21.2-81 7.1-27.3 14.3-54.5 21.5-81.8 6.6-25.1 13.2-50.2 19.8-75.3 7.1-26.9 14.1-53.8 21.1-80.6 6.1-23.2 12.2-46.4 18.3-69.6 5-19 9.9-38 14.9-57.1 4.5-17 9-33.9 13.5-50.9 1.4-5.5 2.8-11.1 4.2-16.8zm-228.3-.4c-66.7 262.3-133.3 524.5-200 786.6 5.9 1.4 6.3 1.2 7.4-3.9.6-2.6 1.2-5.1 1.9-7.6 5-19.7 10.1-39.3 15.1-59 6-23.7 12-47.5 18-71.3 7.1-27.9 14.3-55.9 21.4-83.8 8.1-31.9 16.1-63.8 24.2-95.7 8.7-34 17.4-68.1 26.1-102.1 10.2-40.1 20.3-80.3 30.5-120.5 9.2-36.2 18.5-72.4 27.7-108.6 10.5-41.2 20.9-82.3 31.4-123.5.9-3.5 1.6-7 2.4-10.6-2.4 0-4.1 0-6.1 0zm236.7.3c-6.2-.9-6.2-.9-7.5 4.4-2.7 10.8-5.5 21.6-8.2 32.3-5 19.7-10.1 39.3-15.1 59-6.1 23.9-12.1 47.8-18.2 71.6-6.6 25.9-13.2 51.8-19.8 77.7s-13.2 51.8-19.8 77.8c-6.5 25.7-13.1 51.3-19.6 77-6 23.6-12 47.3-18 70.9-6.6 25.9-13.2 51.8-19.8 77.7-6.6 26-13.3 52.1-19.9 78.1-6.5 25.5-13 51.1-19.5 76.6-5.6 21.9-11.1 43.7-16.6 65.6-1.5 5.9-2.9 11.8-4.4 17.9 4.2.7 6.4.6 7.5-4.1 4.4-18.9 9.4-37.6 14.2-56.4 6.6-25.8 13.2-51.6 19.7-77.4 6.6-25.9 13.2-51.8 19.7-77.8 6.6-25.9 13.2-51.8 19.8-77.8 6.6-25.8 13.1-51.6 19.7-77.4 6-23.6 12-47.3 18-70.9 6.1-23.9 12.1-47.8 18.2-71.7 6-23.5 12-47 17.9-70.5 5.6-22 11.2-44 16.7-65.9 5-19.6 9.9-39.1 14.9-58.7 4.5-17.6 9-35.3 13.5-52.9 2.4-8.1 4.4-16.5 6.6-25.1zm-251.5-.2c-64.5 262.2-129 524.5-193.6 787h6.5c64.5-262.2 129-524.4 193.6-787-2.4 0-4.3 0-6.5 0zm66.3 787c64.5-262.3 129-524.5 193.6-787-2.4 0-4.2 0-6.5 0-64.5 262.2-129 524.5-193.6 787zm-268-.4c4.4 1.4 6.4.5 7.4-3.8 2.6-11.9 5.6-23.7 8.4-35.5 4.5-18.9 8.9-37.8 13.4-56.6 5.1-21.3 10.2-42.6 15.2-63.9 5-20.8 9.9-41.6 14.8-62.4 5-20.9 10-41.8 15-62.7 5-21 10-42.1 15-63.1 5.5-23.1 11-46.2 16.5-69.2 5.6-23.3 11.1-46.7 16.6-70 5.5-23.1 11-46.2 16.5-69.3s10.9-46.2 16.4-69.3c5.5-23.2 11.1-46.4 16.6-69.6 5.6-23.5 11.2-46.9 16.7-70.4 1.6-6.8 3.2-13.7 4.8-20.5-6.3-1-6.2-1-7.4 4.3-5.5 23.1-11 46.2-16.5 69.2-5.5 23.2-11 46.4-16.5 69.6-5.5 23-10.9 45.9-16.4 68.9-5.5 23.1-11 46.2-16.5 69.2-5.6 23.3-11.1 46.7-16.6 70-5.5 23.1-11 46.2-16.5 69.2-6 25.3-11.9 50.5-18 75.8-5.5 23.3-11.2 46.7-16.7 70-5.6 23.3-11.1 46.7-16.6 70-5.5 23-10.9 45.9-16.4 68.9-5.1 21.4-10.2 42.8-15.3 64.2-1.3 5.7-2.6 11.3-3.9 17zm276.3.4c3.2 0 6.2 1.7 7.2-2.6 5.3-22.6 10.7-45.2 16-67.7 4.9-20.8 9.9-41.6 14.8-62.4 5.5-23.2 11.1-46.4 16.6-69.6 5.6-23.3 11.1-46.7 16.6-70 5-21 10-42.1 15-63.1 5-20.9 10-41.8 14.9-62.7 5-21 10-42.1 15-63.1 4.9-20.8 9.9-41.6 14.8-62.4 5.5-23.2 11.1-46.4 16.6-69.6 5-21.2 10.1-42.3 15.1-63.5 5-20.9 9.9-41.8 14.9-62.7 4-16.7 8-33.4 12-50.1 1.3-5.7 2.6-11.3 4-17.3-2.5 0-4.4 0-6.4 0-62.4 262.2-124.7 524.3-187.1 786.8zm14.8-.2c3.8.6 6.2 1.1 7.3-3.6 7.4-33.3 15.2-66.4 22.9-99.7 8.1-35.4 16.1-70.8 24.3-106.2 7.1-30.9 14.3-61.8 21.4-92.7 8.1-35.4 16.1-70.8 24.3-106.2 9.2-40 18.5-80 27.7-120 10-43.3 19.9-86.6 29.8-129.9 8.9-38.9 17.9-77.9 26.8-116.8.9-3.8 1.5-7.6 2.4-11.9-2.8.5-5.8-1.8-6.7 2.1-3.7 15.9-7.3 31.9-11 47.9-4.5 19.5-8.9 39.1-13.4 58.6-5 21.7-10 43.4-15 65.1-5.6 24.3-11.1 48.6-16.7 72.8-5 21.7-10 43.5-14.9 65.2-5 21.7-10 43.4-15 65.2-5 21.7-10 43.4-14.9 65.2-4.9 21.5-9.8 42.9-14.8 64.4-5 21.7-10 43.4-15 65.2-5.1 22-10.1 44-15.1 65.9-5 21.7-10 43.4-14.9 65.2-5 21.7-10 43.4-15 65.2-1.6 6.2-3 12.5-4.5 19zm-118.9-786.9c-60.2 262.5-120.4 524.7-180.6 786.8.3.2.6.5.9.7 1.9-1.1 5 1.8 5.9-2.3 2.1-9.2 4.2-18.4 6.3-27.6 4.4-19.4 8.8-38.8 13.3-58.3 5.5-24 11.1-48 16.6-72 5.6-24.3 11.1-48.6 16.7-72.8 5.5-23.8 10.9-47.5 16.4-71.3 5.5-24 11-48.1 16.5-72.1 5.6-24.3 11.2-48.6 16.8-72.8 5-21.8 10.1-43.7 15.1-65.5 5-21.7 9.9-43.5 14.9-65.2 4.9-21.5 9.9-42.9 14.8-64.4 5-21.6 10-43.2 14.9-64.8 5.1-22.1 10.2-44.2 15.2-66.3.9-3.9 1.7-7.8 2.6-12-2.4-.1-4.2-.1-6.3-.1zm-188.8 786.6c5.9 1.5 6.5 1 7.4-4.3.6-3.2 1.3-6.4 2-9.6 4-17.9 8-35.8 12-53.7 4.5-20.1 8.8-40.2 13.3-60.3 5-22.5 10.1-45 15.1-67.6 6.1-27.4 12.1-54.8 18.1-82.2 6-27.1 12.1-54.3 18.1-81.4 5.5-25 11-49.9 16.5-74.9 6-27.1 12.1-54.3 18.1-81.4 5.5-25 10.9-49.9 16.5-74.9 6.6-29.6 13.2-59.1 19.7-88.7 6.8-30.5 13.5-60.9 20.2-91.4 1.2-5.3 2.2-10.6 3.4-16.2-2.3 0-4.1 0-6.3 0-58 262.2-116.1 524.4-174.1 786.6zm328.8.5c58-262.3 116.1-524.5 174.1-786.7-5.9-1.3-6.3-1-7.2 3.3-3.9 17.9-7.8 35.8-11.8 53.7-5 22.5-10 45-15 67.5-5 22.4-9.9 44.8-14.8 67.2-5.6 25.3-11.2 50.7-16.9 76-4.9 22.3-9.8 44.5-14.8 66.8-5 22.4-10 44.8-14.9 67.2-5 22.7-10 45.3-15 68-5.5 24.8-11.1 49.7-16.6 74.5-5 22.5-9.9 45.1-14.9 67.6-5.5 24.8-11 49.7-16.6 74.5-6.2 27.9-12.4 55.8-18.5 83.7-1.2 5.4-2.3 10.9-3.5 16.6 2.5.1 4.2.1 6.4.1zm-162.8-787.8c-3 1.5-6.2-1.5-7.1 3-4.8 22.7-9.6 45.4-14.5 68.1-5 23.5-10 46.9-15 70.4-5 23.3-9.9 46.7-14.9 70-5 23.6-10.1 47.2-15.1 70.8-5 23.3-9.9 46.7-14.9 70-4.9 23.1-9.8 46.2-14.7 69.2-4.5 21.2-9 42.3-13.5 63.5-4.5 20.9-8.9 41.8-13.4 62.7-4.5 21-9 42.1-13.4 63.1-3.9 18.5-7.9 36.9-11.8 55.4s-7.8 36.9-11.8 55.4c-3.4 16.1-6.9 32.3-10.4 48.4-1.2 5.8-2.4 11.7-3.7 17.8h6.3c55.8-262.4 111.7-524.5 167.9-787.8zm171.1 787.7c3 0 6.1 2 7-2.4 3.2-15.3 6.5-30.5 9.7-45.8 5-23.5 10-46.9 15-70.4 4.9-23.2 9.9-46.4 14.9-69.6 5-23.3 9.9-46.7 14.9-70s10-46.7 15-70c4.5-21 8.9-42.1 13.4-63.1 5-23.7 10.1-47.4 15.2-71.2 5-23.3 10-46.7 15-70s9.9-46.7 14.9-70c4.5-21.2 9.1-42.3 13.6-63.5 3.9-18.3 7.7-36.7 11.6-55 3.4-16.1 7-32.3 10.4-48.4 1.2-5.7 2.4-11.5 3.6-17.5-2.3 0-4.2 0-6.3 0-56 262.2-111.9 524.4-167.9 786.9zm176.1-787c-53.8 262.6-107.6 524.7-161.4 787.5 3.2-.7 6.2 1.5 7-2.9 2.9-14.8 6.1-29.5 9.1-44.3 5.5-27 11-54 16.5-80.9 5.5-26.7 11-53.4 16.5-80.1 6-29.4 12-58.8 18-88.3 5.5-26.8 11.1-53.7 16.6-80.5 6.6-32 13-64 19.5-96 6.6-32 13.2-63.9 19.8-95.9 7.1-34.6 14-69.1 21.1-103.7 7.1-34.5 14.3-69 21.4-103.6.8-3.7 1.3-7.3 2.1-11.3-2.3 0-4.1 0-6.2 0zm-529.9 787.5c3-.7 6 1.6 6.8-2.4 1.5-7.2 3.1-14.3 4.5-21.5 3.4-16.7 6.7-33.4 10.1-50.1 4.5-21.7 9-43.4 13.5-65.1 4-19.4 7.9-38.8 11.8-58.2 5-24.3 10-48.5 15-72.8s9.9-48.6 14.8-72.8c5-24.3 10-48.5 15-72.8 5-24.4 9.9-48.8 14.9-73.2 5-24.3 10-48.5 15-72.8 4.6-22.2 9.1-44.4 13.6-66.7 5-24.4 10-48.8 15-73.2 4.5-21.8 9-43.7 13.5-65.5 1.4-6.6 2.6-13.3 4-20.2-2.4 0-4.3 0-6.4 0-53.6 262.2-107.3 524.3-161.1 787.3zm-8.2 0c3-.7 6.1 1.5 6.9-2.5 2.7-13.6 5.3-27.3 8-40.9 3.4-17.4 6.8-34.7 10.2-52.1 3.9-19.9 7.9-39.9 11.8-59.8 4.5-23 9-46.1 13.6-69.1 4.4-22.4 8.8-44.8 13.3-67.2 4-20.5 8.1-40.9 12.1-61.4 4.4-22.4 8.8-44.8 13.2-67.2 3.9-19.9 7.8-39.9 11.7-59.8 4.4-22.5 8.9-45 13.4-67.5 4.5-23 9-46.1 13.5-69.1 5-25.3 10-50.7 15-76 4.5-23 9.1-46 13.6-69.1 1.7-8.5 3.2-16.9 4.9-25.4-5.8-1.2-6.2-1-7 3.3-5 25.2-9.9 50.4-14.8 75.7-4.3 22.1-8.7 44.3-13 66.4-4 20.5-8.1 40.9-12.1 61.4-4.4 22.5-8.9 45-13.3 67.5-3.9 19.9-7.9 39.9-11.8 59.8-4.4 22.5-8.8 45-13.2 67.6-4 20.3-8 40.7-12 61-4 20.1-7.9 40.1-11.9 60.2-4.5 22.6-8.9 45.3-13.3 67.9-3.9 19.8-7.8 39.6-11.7 59.4-4 20.3-8 40.7-12 61-3.4 17.4-6.9 34.7-10.3 52.1-1.8 7.6-3.2 15.3-4.8 23.8zm552.7-787c-.4-.3-.7-.6-1.1-.9-1.7 1.4-4.9-1.7-5.8 2.6-2.5 13.5-5.2 27-7.9 40.5-3.4 17.5-6.8 35-10.3 52.5-3.9 19.8-7.9 39.6-11.8 59.4-4 20.2-7.9 40.4-11.9 60.6-4.5 22.8-9 45.5-13.5 68.3s-8.9 45.6-13.4 68.3c-4.4 22.3-8.8 44.5-13.2 66.8-4 20.5-8 40.9-12 61.4-5 25.5-10 51-15 76.4-4.4 22.3-8.7 44.5-13.1 66.8-4.5 22.9-9 45.8-13.6 68.7-4.5 22.9-9 45.8-13.5 68.7-1.7 8.7-3.4 17.4-5.1 26.4h6.4c51.6-262.3 103.2-524.4 154.8-786.5zm-412.7-.5c-49.5 262.5-98.9 524.6-148.3 786.8 6.2 1 6.5.8 7.4-4.7 1.2-7 2.4-13.9 3.7-20.9 2.9-15.3 5.9-30.6 8.8-46 3.5-18.3 6.9-36.6 10.3-54.9 3.9-20.9 7.9-41.7 11.9-62.6 4-21.1 8-42.3 11.9-63.4 4.4-23.5 8.9-46.9 13.3-70.4 4-21 7.9-42 11.8-63 4-21.1 8-42.3 11.9-63.4 3.8-20.4 7.7-40.7 11.5-61.1 4-21 8-42 11.9-63 4-21 7.9-42 11.8-63 4.4-23.5 8.9-46.9 13.3-70.4 4-21.4 8.1-42.8 12.1-64.2 1-5.2 1.8-10.4 2.8-15.9-2.3.1-3.9.1-6.1.1zm420.9.5c-5.8-1.3-6.4-.9-7.2 4.5-.6 4.1-1.4 8.3-2.2 12.4-3.4 18.2-6.9 36.3-10.4 54.5-3.4 18-6.7 36.1-10.1 54.1-4 21.1-8 42.3-12 63.4-4.4 23.5-8.8 46.9-13.2 70.4-4.5 23.8-9.1 47.7-13.6 71.5-4.4 23.5-8.8 46.9-13.2 70.4-5 26.4-10.1 52.8-15 79.2-5.5 29.3-10.9 58.5-16.4 87.8-6.5 34.7-13.2 69.3-19.7 104-6.3 33.1-12.5 66.2-18.7 99.4-.9 5-1.7 10-2.7 15.4 2.9-.5 6 1.8 6.8-2.5 4.2-22.7 8.5-45.4 12.8-68.1 4.4-23.6 8.8-47.2 13.3-70.8 5-26.4 10-52.8 15-79.2 4-21.1 7.9-42.3 11.9-63.4 3.9-21 7.9-42 11.9-63 3.9-20.6 7.8-41.2 11.7-61.9 4-21.1 8-42.3 12-63.4 4.4-23.3 8.8-46.7 13.2-70 4-21.1 8-42.3 12-63.4 3.5-18.3 6.9-36.6 10.4-54.9 3.4-18 6.7-36.1 10.1-54.1 2.9-15.5 5.9-30.9 8.8-46.4 1.4-8.7 2.9-17.3 4.5-25.9zm2.1-.4c-47.3 262.4-94.6 524.6-141.9 787h6.4c47.3-262.4 94.6-524.5 141.9-787-2.4 0-4.2 0-6.4 0zm-573.3 787c47.3-262.3 94.6-524.6 141.9-787-2.5 0-4.4 0-6.4 0-47.3 262.4-94.6 524.5-141.9 787zm446.1 0c3.7.4 6.4 1.1 7.1-3.5 2.1-13.4 4.4-26.6 6.7-40 3.4-19.8 6.8-39.6 10.2-59.3 3.4-19.9 6.9-39.8 10.3-59.7 3.4-19.8 6.8-39.6 10.2-59.3 3.4-19.6 6.8-39.3 10.2-58.9 3.5-20.2 6.9-40.3 10.4-60.5 3.4-19.8 6.8-39.6 10.2-59.3 3.4-19.6 6.7-39.3 10.1-58.9 3.4-19.9 6.9-39.8 10.3-59.7 3.4-19.8 6.8-39.6 10.2-59.3 3.9-22.9 7.9-45.8 11.8-68.6 3.4-19.6 6.7-39.3 10.1-58.9 3.9-22.6 7.9-45.2 11.8-67.8.7-4.2 1.3-8.5 2-13-2.4 0-4.3 0-6.2 0-45.1 262.1-90.2 524.1-135.4 786.7zm-460.7-.3c6.1 1 6.1 1 6.9-4.1 1.6-9.4 3.2-18.9 4.9-28.3 4-22.9 8.1-45.7 12-68.6 5-29.1 9.9-58.2 14.9-87.3 5-29 10.1-57.9 15.1-86.8 5-29 9.8-57.9 14.8-86.9 5-28.9 10.1-57.9 15.1-86.8 5.5-32.1 10.9-64.1 16.4-96.2 6.5-38 13.2-76 19.8-114 6.3-36.3 12.5-72.8 18.8-109.2 1-6 2-12.1 3-18.5-2.2 0-4 0-6.3 0-45.1 262.1-90.2 524.3-135.4 786.7zm481.8.4c43-262.4 86-524.6 128.9-786.7-6.4-1.2-6.3-1.1-7.1 4.3-1.6 10.8-3.4 21.7-5.2 32.5-2.9 17.9-5.9 35.7-8.8 53.6-2.9 17.5-5.7 35-8.6 52.4-3.5 21.1-7 42.2-10.4 63.3-3.4 21-6.9 41.9-10.3 62.9-3.4 20.8-6.8 41.7-10.2 62.5-3.3 20.3-6.6 40.6-10 61-3.5 21.2-7 42.5-10.5 63.7-3.4 20.7-6.8 41.4-10.2 62.1-3.4 20.6-6.8 41.2-10.1 61.7-3.4 21-6.8 41.9-10.2 62.9s-6.9 41.9-10.3 62.9-6.9 41.9-10.3 62.9c-1 5.9-1.8 11.8-2.8 17.9 2.2.1 3.9.1 6.1.1zm-490.1.2c3.4-.3 6.4 1.2 7-3.1 1.5-10.4 3.3-20.7 4.9-31.1 2.8-17.3 5.6-34.7 8.5-52 3.4-20.8 6.9-41.7 10.3-62.5 3.5-21.2 6.9-42.5 10.4-63.7l11.7-71.1c3.9-23.9 7.8-47.9 11.7-71.8s7.9-47.9 11.8-71.8c3.4-20.8 6.7-41.7 10.1-62.5 4-24.6 8.1-49.2 12.1-73.8 3.3-20.3 6.6-40.6 10-61 3.9-23.9 7.9-47.9 11.9-71.8 4.1-24.7 8.1-49.4 12.2-74.2.9-5.6 1.7-11.3 2.6-17-2.5 0-4.2 0-6.2 0-43 262.4-86 524.5-129 787.4zm621-787.3c-40.8 262.3-81.7 524.5-122.5 787h6.4c40.8-262.3 81.6-524.5 122.5-787-2.3 0-3.9 0-6.4 0zm-506.8 0c-40.8 262.4-81.6 524.6-122.5 787h6.3c40.9-262.3 81.7-524.5 122.6-787-2.3 0-4.1 0-6.4 0zm-124.5 787.1c38.7-262.5 77.4-524.6 116.1-787-3.6-.4-6.4-1.3-7 3.5-2.6 19.2-5.5 38.4-8.3 57.6-3.3 22.6-6.7 45.2-10 67.7-3.5 23.4-6.9 46.7-10.4 70.1-2.8 19.2-5.6 38.4-8.5 57.6-3.4 23.2-6.9 46.4-10.4 69.7-2.9 19.7-5.8 39.4-8.7 59.2-3.4 23-6.8 45.9-10.2 68.9-3.4 23.2-6.8 46.5-10.2 69.7s-6.9 46.5-10.3 69.7c-3.5 23.5-7 47-10.4 70.5-2.9 19.5-5.7 38.9-8.5 58.4-2.4 16.2-4.9 32.4-7.3 48.6-.8 5.2-1.4 10.5-2.2 15.9 2.4-.1 4.1-.1 6.3-.1zm639.6-787.2c-38.7 262.6-77.4 524.7-116.1 787.1h6.4c38.7-262.3 77.4-524.5 116.1-787-1.3-.1-2-.2-2.8-.2-1.1 0-2.1.1-3.6.1zm-544.5 0c-36.6 262.5-73.1 524.7-109.7 787.1 1.8.1 2.7.2 3.6.2s1.7-.2 2.8-.4c36.5-262.3 73.1-524.5 109.6-786.9-2.5 0-4.2 0-6.3 0zm449.5 787.1c36.5-262.3 73.1-524.5 109.6-787-2.5 0-4.4 0-6.3 0-36.6 262.5-73.1 524.6-109.6 787zm-567.4-.3c5.9 1 6.3.8 6.9-3.4 2.7-20.5 5.3-41.1 8-61.6 2.9-22.2 5.7-44.5 8.7-66.7 3.4-25.9 6.9-51.8 10.3-77.6 3.9-30 7.8-60.1 11.7-90.2 3.9-29.9 7.9-59.8 11.9-89.7 4-30.2 7.8-60.4 11.8-90.6 3.9-29.9 8-59.8 11.9-89.7 4.5-34.1 8.8-68.2 13.3-102.3 4.4-34 9-67.9 13.5-101.8.6-4.2 1-8.5 1.6-13-2.3 0-4.2 0-6.3 0-34.6 262.2-68.9 524.3-103.3 786.6zm685.3-786.4c-6.2-1-6.4-.9-7 4.2-.5 4.3-1.1 8.6-1.6 12.9-2.3 17.8-4.5 35.6-6.9 53.5-3 22.6-6 45.3-9 67.9-3 22.4-5.9 44.7-8.8 67.1-2.8 21.5-5.6 42.9-8.4 64.4-3.4 25.9-6.7 51.8-10.1 77.7s-6.9 51.8-10.3 77.6c-3.4 26-6.7 52-10.1 78.1-3.9 29.9-7.9 59.8-11.9 89.7-3.4 26-6.7 52-10.1 78.1-4.5 33.9-9 67.9-13.5 101.8-.6 4.5-1.1 9-1.7 13.8h6.3c34.3-262.5 68.7-524.5 103.1-786.8zm2-.3c-32.3 262.4-64.5 524.5-96.7 786.7 5.9 1 6.3.9 6.8-3.3 2.8-22.7 5.5-45.3 8.3-68 2.9-23.4 5.7-46.9 8.6-70.3 3.4-27.9 6.9-55.7 10.3-83.6 3.3-27.2 6.6-54.4 10-81.6 3.4-28 7-56 10.4-84 3.4-27.7 6.7-55.5 10.2-83.2 3.4-27.6 6.9-55.2 10.3-82.8 4.4-35.9 8.7-71.9 13.1-107.8 4.5-36.2 9-72.4 13.5-108.5.5-4.4 1-8.8 1.5-13.4-2.2-.2-3.9-.2-6.3-.2zm-689.4 787.1c32.3-262.5 64.5-524.6 96.8-787.2-3.3 0-6.3-1.7-6.8 3.2-2.6 22.4-5.4 44.8-8.2 67.2-2.8 23.3-5.7 46.6-8.5 69.9-3.4 28-6.9 56-10.4 84-3.5 28.3-6.9 56.5-10.4 84.8-2.8 22.8-5.6 45.6-8.4 68.4-3.9 32-7.8 64.1-11.7 96.1-3.5 28.3-7 56.5-10.4 84.8-3.5 28-6.9 56-10.4 84-2.9 23.6-5.7 47.1-8.6 70.7-2.4 19.3-4.8 38.5-7.2 57.8-.7 5.4-1.2 10.8-1.9 16.4 2.1-.1 3.8-.1 6.1-.1zm697.7-787.1c-30.1 262.4-60.2 524.6-90.3 787h6.3c30.1-262.4 60.1-524.5 90.2-787-2.3 0-4.1 0-6.2 0zm-622-.1c-30.1 262.5-60.1 524.6-90.2 787.1h6.3c30.1-262.4 60.1-524.6 90.3-787.1-2.5 0-4.2 0-6.4 0zm630.3 0c-28 262.5-55.9 524.6-83.8 787 1.2.1 2 .3 2.7.3 1 0 2.1-.1 3.6-.2 27.9-262.3 55.9-524.6 83.8-787-1.4-.1-2.1-.2-2.7-.2-1.1 0-2.1.1-3.6.1zm-69 786.8c6 1 6.2.9 6.7-4.2 1.2-12.1 2.3-24.3 3.5-36.4 2.3-23.2 4.5-46.5 6.8-69.7 2.4-24.4 4.9-48.8 7.3-73.2 2.8-29 5.6-58 8.5-87 2.9-29.8 5.9-59.5 8.8-89.3 2.9-29.2 5.7-58.5 8.6-87.8 2.9-30 5.9-60.1 8.9-90.1 2.3-23.4 4.6-46.7 6.9-70.1 2.9-29.9 5.9-59.8 8.8-89.7 1.9-18.9 3.8-37.9 5.7-56.8 1-10.7 2-21.4 3-32-5.7-1.3-6.1-1.1-6.6 3.9-.7 6.3-1.2 12.5-1.8 18.8-2.3 24.2-4.6 48.3-7 72.5-3.5 35.1-7 70.2-10.5 105.4-3.4 34.2-6.6 68.4-10 102.6-4 40.2-8 80.4-12 120.6-2.9 29.2-5.6 58.5-8.5 87.8-3.4 34.5-6.9 68.9-10.3 103.4-4.7 47.5-9.4 95.1-14 142.6-1.1 9.4-1.9 19-2.8 28.7zm-576-786.6c-27.9 262.3-55.8 524.5-83.8 787h6.3c28-262.4 55.9-524.6 83.9-787-1.6-.1-2.7-.2-3.7-.2-.9-.1-1.6 0-2.7.2zm661.6 0c-23.6 262.4-47.3 524.6-70.9 787h6.3c23.6-262.4 47.3-524.6 70.9-787.1-1.6-.1-2.6-.2-3.6-.2-.9 0-1.6.1-2.7.3zm-49.9 787c21.5-262.5 43-524.7 64.5-787-2.4 0-4.2 0-6.3 0-21.5 262.4-43 524.6-64.5 787zm66.5-787.2c-19.4 262.5-38.7 524.7-58 786.9 6.1.9 6.3.8 6.7-3.6 3.2-43.2 6.4-86.4 9.5-129.6 3.4-46.5 6.7-92.9 10.1-139.4 3.9-52.9 7.9-105.7 11.8-158.6 3.4-46.5 6.7-92.9 10.1-139.4 5-67.8 10.1-135.6 15.1-203.4.3-4.3.4-8.6.6-13-2.1.1-3.8.1-5.9.1zm-37 787.1c17.2-262.4 34.4-524.6 51.5-787-2.3 0-4.1 0-6.3 0-17.2 262.4-34.4 524.6-51.6 787zm53.3-773.4c-.2-.1-.4-.1-.6-.2-14.8 257.8-29.6 515.7-44.4 773.5h6.3c.6-10.2 1.1-20.1 1.7-30.1 3.9-67.6 7.9-135.2 11.8-202.8 3.7-63.5 7.3-127.1 10.9-190.6 1.9-33.1 3.6-66.3 5.6-99.4 2.9-48.7 6.6-97.4 8.5-146.2 1.3-34.6.2-69.4.2-104.2zm0 169.8c-.2 0-.4 0-.5 0-9.9 201.2-19.8 402.3-29.6 603.5h7c0-5-.2-9.7 0-14.4 4-81.3 8-162.5 12.1-243.7 3.7-74 8.1-148 10.8-222.1 1.5-41.1.2-82.2.2-123.3zm-9.3 603.7c3.1-71.7 7-142.9 9-214.2 1.4-50.2.3-100.5.3-150.7-.1 0-.3 0-.4 0-5 121.6-10 243.2-14.9 365 2.2-.1 3.9-.1 6-.1z" fill="#fff"/><path d="m-4 752.8c1-8.4 2.1-16.9 3-25.3 3-30.7 6-61.4 9-92 2.8-28.7 5.6-57.5 8.4-86.2 3-30.3 6-60.6 9-90.9 2.8-28.3 5.5-56.7 8.3-85 3.5-35.5 7-71 10.5-106.5 2.3-23.6 4.6-47.3 6.9-70.9 2.9-29.5 5.8-59 8.7-88.5 2.4-24.2 4.7-48.3 7.1-72.5 1.7-17.2 3.3-34.5 5-51.7.1-.9.4-1.7.6-2.8h6.1c-25.8 262.5-51.5 524.7-77.4 787.2-2.1 0-3.7 0-5.2 0 0-5 0-9.9 0-14.9z"/><path d="m-4 659.1c1-9 2.1-17.9 2.9-26.9 3-33.3 6-66.6 9-100 2.9-32.3 5.8-64.6 8.7-96.8 3.5-38.4 7-76.8 10.5-115.2 2.9-32.5 5.7-65.1 8.6-97.6 3.5-39.5 7.2-78.9 10.7-118.4 3.7-40.6 7.3-81.3 11-121.9 0-.5.2-1 .4-1.7h5.9c-.2 2.5-.3 4.8-.5 7.1-3.6 40.1-7.2 80.2-10.8 120.4-3.4 37.2-6.8 74.5-10.2 111.7-2.9 32.1-5.7 64.3-8.6 96.5-2.9 32.1-5.9 64.3-8.8 96.4s-5.7 64.3-8.6 96.5c-3.2 37.1-6.7 74.5-10 111.9-3 32.9-5.8 65.9-8.8 98.8-.3 2.8-.9 5.7-1.3 8.5-.1-23.1-.1-46.2-.1-69.3z"/><path d="m-4 547.2c1-10.3 2.1-20.6 3-30.9 2.6-30.9 5.1-61.7 7.6-92.6 2.5-30.5 4.9-60.9 7.4-91.4 2.6-32.2 5.3-64.3 7.9-96.5l9-111c3.4-41.1 6.8-82.1 10.3-123.2.6-7 1.1-14.1 1.7-21.2h6c0 1.4.1 2.6 0 3.8-3.5 43.2-7 86.3-10.6 129.5-3.4 41.6-6.9 83.2-10.3 124.7-2.9 35.2-5.7 70.4-8.5 105.5-2.8 34.4-5.7 68.8-8.5 103.2-3 35.4-5.9 70.7-8.7 106-1.8 22.5-3.7 45-5.5 67.5-.1 1-.5 2-.7 3-.1-25.4-.1-50.9-.1-76.4z"/><path d="m-4 410.2c.4-3.9 1-7.7 1.3-11.6l9.3-126c2.8-38.1 5.5-76.1 8.3-114.2 2.9-39.8 5.9-79.5 8.9-119.3 1.2-16.9 2.4-33.8 3.7-50.6.2-2.6.4-5.2.6-8h6c0 1.3.1 2.4 0 3.5-3.1 41.6-6.2 83.2-9.2 124.8-2.9 39.1-5.6 78.2-8.5 117.4s-5.9 78.5-8.8 117.7c-2.9 39-5.7 78-8.5 117-.8 10.5-1.5 20.9-2.4 31.4-.1 1-.4 2-.7 3 0-28.4 0-56.7 0-85.1z"/><path d="m-4 238.5c.4-3.6 1-7.2 1.2-10.9 3-45.7 5.9-91.4 8.9-137.1 2.3-35.5 4.7-71.1 7.1-106.8.1-1 .2-2 .4-3.3h5.9c0 1.8.1 3.4 0 5.1-2.5 35.8-4.9 71.5-7.2 107.3-2.4 35.6-4.6 71.2-7 106.8-2.4 36.7-4.9 73.3-7.3 110-.5 6.9-.8 13.9-1.3 20.8-.1 1.4-.5 2.8-.7 4.2 0-32 0-64 0-96.1z"/><path d="m-4 18.8c.5-7 1.1-14.1 1.6-21.1.4-5.7.7-11.4 1.1-17.3h6c0 1.4.1 2.6 0 3.9-2.7 46.6-5.3 93.2-8 139.8-.1 1.4-.4 2.8-.7 4.2 0-36.5 0-73 0-109.5z"/><path d="m235.3 767.3c88.3-262.5 176.5-524.7 264.7-786.8h6.6c-1.9 5.8-3.7 11.2-5.5 16.6-9.2 27.4-18.5 54.8-27.7 82.2-9.2 27.3-18.4 54.6-27.5 81.9-10.8 32-21.6 64.1-32.3 96.1-9.7 28.8-19.4 57.6-29.1 86.4-11.9 35.4-23.8 70.8-35.7 106.2-11.2 33.4-22.5 66.8-33.8 100.2-10.8 32-21.5 64.1-32.3 96.1-10.7 31.9-21.5 63.8-32.3 95.7-2.3 7-4.7 13.9-7 20.9-1.7 5.4-1.7 5.4-8.1 4.5z"/><path d="m508.3-19.6h6.4c-1.4 4.7-2.7 9.1-4.1 13.5-7.2 21.9-14.4 43.7-21.6 65.6-8.6 26.1-17.1 52.3-25.7 78.4-8.7 26.4-17.3 52.8-26 79.2-10.9 33.1-21.8 66.2-32.6 99.4-9.6 29.3-19.2 58.5-28.8 87.8-11.4 34.9-22.9 69.7-34.4 104.6-12.8 39.1-25.6 78.2-38.4 117.3-11.8 35.9-23.6 71.7-35.4 107.6-3.2 9.8-6.7 19.6-9.6 29.5-1.3 4.5-3.5 5.3-8 3.9 86-262.3 172.1-524.5 258.2-786.8z"/><path d="m227.2 767.1c1.3-4.1 2.5-8.2 3.8-12.3 15.8-48 31.5-96 47.3-144 12.9-39.1 25.8-78.2 38.6-117.3 17.6-53.7 35.1-107.4 52.7-161 18.3-55.9 36.7-111.8 55-167.7 14.5-44.1 29-88.1 43.5-132.2 5.4-16.6 10.9-33.1 16.1-49.7 1.4-4.4 4.4-1.8 7.6-3.1-1.8 5.8-3.2 10.6-4.8 15.4-15.1 46.2-30.3 92.4-45.5 138.6-13.9 42.3-27.9 84.6-41.8 127-12.4 37.7-24.7 75.5-37 113.2-11.8 35.9-23.6 71.7-35.4 107.5-11.3 34.5-22.5 69-33.9 103.5-10.7 32.7-21.6 65.4-32.4 98.2-7.6 23.2-15.1 46.5-22.7 69.8-1.1 3.4-2.3 6.7-3.2 10.1-.9 3.9-3 5.8-7.9 4z"/><path d="m470.5-19.6h6.5c-1.4 4.7-2.7 9.2-4.1 13.6-12.5 39.1-25 78.1-37.5 117.2-11.3 35.2-22.6 70.4-33.9 105.6-10.8 33.7-21.5 67.4-32.3 101.1-11.8 36.9-23.7 73.9-35.5 110.8s-23.6 73.9-35.4 110.9c-10.8 33.7-21.7 67.3-32.4 101-9.7 30.3-19.3 60.6-28.9 90.9-3.6 11.3-7.3 22.7-10.9 34-1.2 3.9-4.2 1.8-7.4 2.2 83.9-262.7 167.8-524.8 251.8-787.3z"/><path d="m523-19.6c-1.6 5.2-2.9 10.1-4.5 14.9-7.2 22.3-14.4 44.6-21.6 66.9-8.2 25.6-16.3 51.2-24.5 76.7-8.6 27-17.3 53.9-25.9 80.9-8.7 27.1-17.3 54.2-26 81.3-9.7 30.3-19.4 60.7-29.1 91-9.7 30.5-19.5 60.9-29.2 91.4s-19.5 60.9-29.2 91.4c-9.7 30.2-19.4 60.4-29 90.6-10.2 32-20.4 63.9-30.7 95.9-.2.6-.4 1.2-.5 1.9-.7 4.4-3.3 5.5-7.8 3.9 1.9-6.2 3.9-12.4 5.8-18.6 8.7-27.1 17.3-54.2 26-81.3 9.7-30.3 19.4-60.7 29.1-91 10.3-32.1 20.5-64.2 30.8-96.2 10.8-33.8 21.7-67.6 32.5-101.5 10.1-31.7 20.3-63.4 30.4-95.1 10.3-32.2 20.6-64.4 30.9-96.6 8.7-27.2 17.4-54.4 26.1-81.6 8.2-25.4 16.4-50.9 24.5-76.3 4.8-15.1 9.9-30.1 14.3-45.3 1.4-4.9 4.1-3.2 7.6-3.3z"/><path d="m210.5 767.3c3.3-10.7 6.5-21.2 9.8-31.7 6.6-21.1 13.3-42.2 19.8-63.3 7.1-22.8 14.1-45.5 21.2-68.3 8.1-26.2 16.3-52.3 24.5-78.4 8.7-27.9 17.4-55.8 26.1-83.7 8.1-25.9 16.1-51.8 24.2-77.7 9.3-29.8 18.6-59.6 27.9-89.3 9.7-31 19.3-62.1 29-93.1 10.2-32.8 20.5-65.6 30.7-98.3 8.7-27.9 17.4-55.8 26.1-83.7 1.5-4.9 3.1-9.7 4.6-14.6 1.6-5.3 1.6-5.3 7.9-4.2-2.4 7.6-4.7 15.2-7.1 22.8-9.7 31.2-19.4 62.3-29.1 93.5-9.1 29.3-18.3 58.6-27.4 87.8-9.2 29.5-18.4 59.1-27.6 88.6-10.3 33-20.6 66.1-30.9 99.1-10.2 32.8-20.4 65.6-30.6 98.4-9.7 31-19.4 62.1-29 93.1-9.8 31.4-19.6 62.8-29.4 94.2-7.1 22.7-14.3 45.5-21.4 68.2-3.8 12.1-7.5 24.2-11.3 36.3-1.8 5.1-1.7 5.1-8 4.3z"/><path d="m279.6 767.2c2.3-7.4 4.5-14.8 6.8-22.1 9.8-31.4 19.6-62.8 29.4-94.2 9.2-29.5 18.5-59 27.7-88.6 9.7-31 19.3-62.1 29-93.1 9.7-31.2 19.4-62.3 29.1-93.5 9.2-29.4 18.3-58.8 27.5-88.2 8.7-27.8 17.3-55.6 26-83.3 8.7-28 17.4-56.1 26.2-84.1 8.2-26.1 16.4-52.2 24.5-78.4 6-19.4 12.1-38.7 17.9-58.1 1.3-4.5 4.2-3.2 7.7-3.1-1.7 5.7-3.3 11.2-5 16.6-7.2 23.1-14.5 46.2-21.7 69.3-8.7 27.8-17.3 55.5-26 83.3-9.2 29.4-18.3 58.8-27.5 88.2-8.6 27.7-17.3 55.3-25.9 83-9.8 31.4-19.6 62.8-29.3 94.2-9.2 29.4-18.4 58.8-27.6 88.2s-18.3 58.8-27.5 88.2c-9.7 31-19.4 62.1-29 93.1-8.2 26.2-16.3 52.3-24.4 78.5-1.6 5.1-1.8 5.3-7.9 4.1z"/><path d="m533.1-19.6h6.5c-1.3 4.6-2.5 8.9-3.8 13.2-7.2 23.8-14.5 47.6-21.7 71.4-8.6 28.3-17.2 56.7-25.8 85-8.6 28.5-17.3 56.9-25.9 85.4-8.1 26.8-16.3 53.7-24.4 80.5-8.6 28.5-17.3 56.9-25.9 85.4-8.7 28.6-17.3 57.2-26 85.8-8.7 28.7-17.4 57.4-26.1 86.2-9.2 30.3-18.5 60.7-27.7 91-9.7 32-19.4 64-29.1 96-.3 1-.7 2-1 3-1.6 5.1-1.6 5.1-7.7 3.9 79.4-262.3 159-524.6 238.6-786.8z"/><path d="m202.2 767.3c79.6-262.4 159.2-524.6 238.8-786.8h6.5c-2.2 7.2-4.2 14.1-6.3 21-9.3 30.6-18.6 61.2-27.9 91.8-9.2 30.2-18.4 60.4-27.6 90.7-8.6 28.3-17.2 56.7-25.8 85-8.7 28.7-17.4 57.4-26.2 86.2-8.7 28.6-17.3 57.2-26 85.8-8.1 26.6-16.1 53.2-24.2 79.8-8.8 28.8-17.5 57.7-26.2 86.5-8.7 28.6-17.5 57.1-26.1 85.7-6.6 21.7-13 43.4-19.6 65-.5 1.5-1 3-1.4 4.5-1.4 5.6-1.6 5.7-8 4.8z"/><path d="m541.4-19.6h6.5c-77.5 262.6-154.9 524.7-232.3 787.1-2 0-4 0-6.6 0 77.5-262.4 154.9-524.5 232.4-787.1z"/><path d="m426.2-19.5h6.5c-2 6.9-3.9 13.4-5.8 19.9-10.3 34.9-20.6 69.9-30.9 104.8-8.7 29.3-17.3 58.6-26 87.8-8.7 29.3-17.3 58.6-25.9 87.9-8.7 29.4-17.4 58.8-26.1 88.2-8.6 29.3-17.2 58.6-25.9 87.9-8.1 27.5-16.3 55-24.4 82.6-8.2 27.7-16.3 55.3-24.5 83-7.1 24-14.3 48-21.3 72-5.5 18.7-11 37.4-16.4 56.2-1.2 4.3-2.8 8.5-3.7 12.8s-3.3 5-7.8 3.7c77.3-262.4 154.8-524.6 232.2-786.8z"/><path d="m323.8 767.3c2.8-9.9 5.6-19.6 8.4-29.3 7.6-26.6 15.3-53.2 22.9-79.7 7.6-26.6 15.3-53.2 22.9-79.7 8.1-28.3 16.2-56.7 24.4-85 7.6-26.6 15.3-53.1 22.9-79.7 7.6-26.5 15.2-52.9 22.7-79.4 7.6-26.5 15.2-52.9 22.8-79.4 7.1-24.7 14.2-49.4 21.3-74.1 7.1-24.8 14.3-49.6 21.4-74.4 6.5-22.8 13.1-45.6 19.6-68.4 5.3-18.6 10.6-37.3 15.9-55.9 1.1-3.7 4-1.5 7.1-2.2-1.7 6.1-3.1 11.6-4.7 17-6.1 21.3-12.3 42.5-18.4 63.8-7.1 24.8-14.3 49.6-21.4 74.4-7.6 26.5-15.1 52.9-22.7 79.4-8.7 30.2-17.4 60.5-26.1 90.7-9.2 32.1-18.4 64.3-27.6 96.4-8.1 28.3-16.4 56.7-24.5 85-8.6 30.1-17.2 60.2-25.9 90.3-8.7 30.2-17.4 60.4-26.1 90.7-8.6 30.1-17.2 60.2-25.9 90.3-.4 1.5-1 3-1.4 4.5-1.2 5.5-1.2 5.5-7.6 4.7z"/><path d="m417.9-19.3c-2.8 9.8-5.5 19.4-8.2 28.9-7.7 26.7-15.3 53.4-23 80.1-8.7 30.2-17.4 60.5-26.1 90.7-7.6 26.5-15.2 52.9-22.8 79.4-8.2 28.5-16.4 56.9-24.5 85.4-7.6 26.3-15.1 52.7-22.7 79-7.6 26.6-15.3 53.2-22.9 79.7-7.1 24.8-14.2 49.6-21.4 74.5-7.1 24.8-14.3 49.6-21.4 74.4-6.6 22.9-13.1 45.8-19.6 68.8-4.2 14.6-8.4 29.2-12.5 43.8-1.2 4.1-4.2 1.7-7.3 2.9 1.8-6.4 3.2-11.9 4.8-17.4 6.1-21.1 12.2-42.3 18.3-63.4s12.1-42.3 18.2-63.5c7.1-24.7 14.2-49.4 21.2-74.1 7.6-26.5 15.2-52.9 22.8-79.4 7.2-24.9 14.3-49.9 21.4-74.8 7.6-26.3 15.2-52.6 22.7-79 7.6-26.6 15.2-53.2 22.9-79.7 7.6-26.5 15.2-52.9 22.8-79.4 7.7-26.7 15.3-53.4 23-80.1 8.1-28.1 16.1-56.2 24.2-84.3.8-2.6 1.6-5.3 2.3-7.9 1.5-5.5 1.5-5.5 7.8-4.6z"/><path d="m177.4 767.1c2.2-8.1 4.4-16.1 6.6-24.2 5-17.9 10.1-35.8 15.1-53.7 6.1-21.8 12.1-43.7 18.2-65.5 7.6-27.4 15.2-54.8 22.9-82.2 6.5-23.5 13.1-47 19.7-70.4 6.6-23.5 13.1-47 19.6-70.5 7.1-25.4 14.2-50.7 21.2-76.1 7.1-25.4 14.1-50.8 21.2-76.1 7.2-25.6 14.3-51.2 21.5-76.9 6.5-23.2 12.9-46.5 19.4-69.7 7.2-25.8 14.4-51.5 21.6-77.3 3.7-13.4 7.7-26.7 11.1-40.2 1.2-4.7 3.5-4.6 7.5-3.8-1.5 5.5-2.9 10.9-4.4 16.3-9.3 33.5-18.6 66.9-28 100.4-8.7 31.1-17.4 62.1-26.1 93.1-8.7 31.1-17.2 62.1-25.9 93.2s-17.4 62.1-26.1 93.1c-8.7 31.1-17.2 62.1-25.9 93.2-8.1 29.2-16.3 58.3-24.5 87.5-7.1 25.4-14.1 50.8-21.2 76.1-6.6 23.6-13.3 47.2-19.8 70.8-5.5 19.8-10.9 39.6-16.4 59.4-.9 4.3-1.8 4.8-7.3 3.5z"/><path d="m338.7 767.2c1.4-5.3 2.8-10.6 4.2-15.9 10.4-37.4 20.8-74.7 31.3-112.1 9.7-34.7 19.4-69.4 29.1-104.1 7.6-27.4 15.2-54.8 22.8-82.2 8.1-29.2 16.4-58.3 24.5-87.5 8.1-29 16.1-58.1 24.2-87.1 7.6-27.4 15.3-54.8 23-82.2 7.6-27.3 15.1-54.6 22.8-81.8 6.6-23.6 13.3-47.2 19.8-70.8 5.5-19.8 10.9-39.6 16.4-59.4 1.1-4.1 2-4.6 7.5-3.2-2.2 8.1-4.4 16.1-6.6 24.1-5 17.9-10.1 35.8-15.1 53.7-6.1 21.7-12.1 43.4-18.1 65.1-7.1 25.5-14.2 51-21.3 76.5s-14.2 51-21.3 76.5c-7.6 27.1-15.1 54.3-22.7 81.4-7.1 25.5-14.2 51-21.3 76.5-7.6 27.4-15.3 54.8-22.9 82.2-7.1 25.4-14.2 50.7-21.3 76.1-6.6 23.5-13.1 47-19.6 70.5s-13.1 47-19.6 70.4c-2.7 9.8-5.5 19.7-8.3 29.5-1.5 4.9-1.5 4.9-7.5 3.8z"/><path d="m382-19.5h6.5c-71.1 262.5-142 524.7-213 787-2.1 0-4 0-6.5 0 71-262.6 142-524.8 213-787z"/><path d="m359.8 767.5c-2.2 0-4 0-6.5 0 71.1-262.6 142.1-524.9 213-787.1h6.5c-71.1 262.5-142 524.7-213 787.1z"/><path d="m373.6-19.3c-3.3 12.7-6.6 25.1-9.8 37.5-6.6 25.1-13.2 50.2-19.8 75.3-6.5 24.9-13.1 49.7-19.6 74.5-7.1 27.1-14.2 54.3-21.4 81.4-6.6 25-13.1 49.9-19.7 74.9s-13.1 50-19.7 74.9c-6.6 25-13.1 50-19.7 74.9-7.1 27.1-14.2 54.3-21.4 81.4-6.6 25.1-13.2 50.2-19.8 75.3-6 22.9-12 45.9-18 68.8-5 19.1-10.1 38.2-15.1 57.4-.5 2-1.3 4-1.5 6.1-.4 4.5-2.9 5.2-7.3 4.1.8-3.3 1.4-6.7 2.3-10l30-114c11.8-45 23.7-90 35.5-135 12.1-46 24.2-92 36.2-138.1 10.5-39.9 21-79.9 31.4-119.8 10.7-41 21.4-81.9 32.1-122.9 9.7-36.9 19.4-73.8 29.2-110.7 2.8-10.5 5.6-21 8.3-31.6 1.6-5.3 1.5-5.3 7.8-4.4z"/><path d="m580.8-19.2c-1.4 5.7-2.8 11.3-4.3 16.8-4.5 17-9 33.9-13.5 50.9-5 19-9.9 38-14.9 57.1-6.1 23.2-12.2 46.4-18.3 69.6-7.1 26.9-14.1 53.8-21.1 80.6-6.6 25.1-13.2 50.2-19.8 75.3-7.2 27.3-14.3 54.5-21.5 81.8-7.1 27-14.1 54-21.2 81-6.6 25-13.2 49.9-19.7 74.9-6.6 25-13 50-19.6 74.9-7.1 27-14.2 54-21.3 81-3.3 12.7-6.7 25.3-10 38-1.4 5.5-1.3 5.5-7.6 4.5 2.2-8.5 4.4-16.9 6.6-25.4 6-22.9 12.1-45.9 18.1-68.8 6.6-25.1 13.1-50.2 19.7-75.3 6.6-25 13.1-49.9 19.7-74.9 7.7-29.2 15.3-58.3 23-87.5 6.5-24.8 13-49.7 19.6-74.6 6.6-25.2 13.3-50.5 19.9-75.7 6.6-25.1 13.1-50.2 19.7-75.3 7.1-27 14.3-54 21.3-81 6.6-25.1 13.1-50.2 19.7-75.3 5.5-21 11.1-42 16.6-63 .5-1.9 1.2-3.8 1.4-5.7.5-4.5 3-5.2 7.5-3.9z"/><path d="m352.5-19.6h6.3c-.8 3.7-1.5 7.2-2.4 10.6-10.4 41.2-20.9 82.3-31.4 123.5-9.2 36.2-18.5 72.4-27.7 108.6-10.2 40.1-20.3 80.3-30.5 120.5-8.7 34-17.4 68.1-26.1 102.1-8.1 31.9-16.1 63.8-24.2 95.7-7.1 27.9-14.3 55.9-21.4 83.8-6 23.7-12 47.5-18 71.3-5 19.7-10.1 39.3-15.1 59-.7 2.5-1.3 5.1-1.9 7.6-1.1 5.1-1.5 5.3-7.4 3.9 66.5-262.1 133.1-524.3 199.8-786.6z"/><path d="m589.2-19.3c-2.1 8.6-4.2 17-6.3 25.3-4.5 17.6-9 35.3-13.5 52.9-5 19.6-9.9 39.1-14.9 58.7-5.6 22-11.1 44-16.7 65.9-6 23.5-12 47-17.9 70.5-6.1 23.9-12.1 47.8-18.2 71.7-6 23.6-12 47.3-18 70.9-6.6 25.8-13.1 51.6-19.7 77.4-6.6 25.9-13.2 51.8-19.8 77.8-6.6 25.9-13.1 51.8-19.7 77.8-6.6 25.8-13.2 51.6-19.7 77.4-4.8 18.8-9.8 37.5-14.2 56.4-1.1 4.7-3.3 4.8-7.5 4.1 1.5-6.1 2.9-12 4.4-17.9 5.5-21.9 11.1-43.7 16.6-65.6 6.5-25.5 13-51.1 19.5-76.6 6.6-26 13.3-52.1 19.9-78.1 6.6-25.9 13.2-51.8 19.8-77.7 6-23.6 12-47.3 18-70.9 6.5-25.7 13-51.3 19.6-77 6.6-25.9 13.2-51.8 19.8-77.8 6.6-25.9 13.2-51.8 19.8-77.7 6.1-23.9 12.1-47.8 18.2-71.6 5-19.7 10.1-39.3 15.1-59 2.8-10.8 5.5-21.6 8.2-32.3 1-5.5.9-5.5 7.2-4.6z"/><path d="m337.7-19.5h6.5c-64.6 262.6-129.1 524.8-193.6 787-2.3 0-4.1 0-6.5 0 64.6-262.5 129.1-524.8 193.6-787z"/><path d="m404 767.5c-2.4 0-4.2 0-6.5 0 64.6-262.6 129.1-524.8 193.6-787h6.5c-64.6 262.5-129.1 524.7-193.6 787z"/><path d="m136 767.1c1.3-5.8 2.6-11.4 3.9-16.9 5.1-21.4 10.2-42.8 15.3-64.2 5.5-22.9 10.9-45.9 16.4-68.9 5.5-23.3 11.1-46.7 16.6-70 5.6-23.3 11.2-46.7 16.7-70 6-25.3 12-50.5 18-75.8 5.5-23.1 11-46.2 16.5-69.2 5.5-23.3 11.1-46.7 16.6-70 5.5-23.1 11-46.2 16.5-69.2s10.9-45.9 16.4-68.9c5.5-23.2 11-46.4 16.5-69.6 5.5-23.1 11-46.2 16.5-69.2 1.2-5.2 1.1-5.3 7.4-4.3-1.6 6.9-3.2 13.7-4.8 20.5-5.6 23.5-11.1 46.9-16.7 70.4-5.5 23.2-11.1 46.4-16.6 69.6-5.5 23.1-10.9 46.2-16.4 69.3s-11 46.2-16.5 69.3c-5.5 23.3-11.1 46.7-16.6 70-5.5 23.1-11 46.2-16.5 69.2-5 21-10 42.1-15 63.1-5 20.9-10 41.8-15 62.7-5 20.8-9.9 41.6-14.8 62.4-5.1 21.3-10.2 42.6-15.2 63.9-4.5 18.9-8.9 37.7-13.4 56.6-2.8 11.8-5.8 23.6-8.4 35.5-1 4.3-3.1 5.2-7.4 3.7z"/><path d="m412.3 767.5c62.4-262.5 124.7-524.6 187.1-787h6.4c-1.4 6-2.6 11.6-4 17.3-4 16.7-8 33.4-12 50.1-5 20.9-9.9 41.8-14.9 62.7-5 21.2-10.1 42.3-15.1 63.5-5.5 23.2-11.1 46.4-16.6 69.6-4.9 20.8-9.9 41.6-14.8 62.4-5 21-10 42.1-15 63.1-5 20.9-10 41.8-14.9 62.7-5 21-10 42.1-15 63.1-5.5 23.3-11.1 46.7-16.6 70-5.5 23.2-11.1 46.4-16.6 69.6-4.9 20.8-9.9 41.6-14.8 62.4-5.4 22.6-10.7 45.2-16 67.7-1.1 4.5-4 2.8-7.2 2.8z"/><path d="m427.1 767.3c1.5-6.5 2.8-12.8 4.3-19.2 5-21.7 10-43.4 15-65.2 5-21.7 10-43.4 14.9-65.2 5-22 10.1-44 15.1-65.9 5-21.7 10-43.4 15-65.2 4.9-21.5 9.8-42.9 14.8-64.4 5-21.7 10-43.4 14.9-65.2 5-21.7 10-43.4 15-65.2 5-21.7 10-43.4 14.9-65.2 5.6-24.3 11.1-48.6 16.7-72.8 5-21.7 10-43.4 15-65.1 4.5-19.5 8.9-39.1 13.4-58.6 3.6-16 7.3-31.9 11-47.9.9-3.9 3.9-1.6 6.7-2.1-.9 4.3-1.5 8.1-2.4 11.9-8.8 39.1-17.7 78-26.7 117-10 43.3-19.9 86.6-29.8 129.9-9.2 40-18.5 80-27.7 120-8.1 35.4-16.1 70.8-24.3 106.2-7.1 30.9-14.3 61.8-21.4 92.7-8.1 35.4-16.1 70.8-24.3 106.2-7.6 33.2-15.4 66.4-22.9 99.7-.9 4.7-3.3 4.3-7.2 3.6z"/><path d="m308.2-19.6h6.3c-.9 4.2-1.7 8.1-2.6 12-5.1 22.1-10.1 44.2-15.2 66.3-5 21.6-10 43.2-14.9 64.8-4.9 21.5-9.9 42.9-14.8 64.4-5 21.7-9.9 43.5-14.9 65.2-5 21.9-10 43.7-15.1 65.5-5.6 24.3-11.2 48.5-16.8 72.8-5.5 24-11 48.1-16.5 72.1-5.4 23.8-10.9 47.5-16.4 71.3-5.6 24.3-11.1 48.6-16.7 72.8-5.5 24-11.1 48-16.6 72-4.5 19.4-8.9 38.8-13.3 58.3-2.1 9.2-4.2 18.4-6.3 27.6-.9 4.1-4.1 1.2-5.9 2.3-.3-.2-.6-.5-.9-.7 60.2-262 120.4-524.2 180.6-786.7z"/><path d="m119.4 767c58-262.2 116.1-524.4 174.1-786.6h6.3c-1.2 5.6-2.3 10.9-3.4 16.2-6.7 30.5-13.5 60.9-20.2 91.4-6.6 29.6-13.2 59.1-19.7 88.7-5.5 25-11 49.9-16.5 74.9-6 27.1-12.1 54.3-18.1 81.4-5.5 25-11 49.9-16.5 74.9-6 27.1-12.1 54.3-18.1 81.4-6.1 27.4-12.1 54.8-18.1 82.2-5 22.5-10.1 45-15.1 67.6-4.5 20.1-8.8 40.2-13.3 60.3-4 17.9-8 35.8-12 53.7-.7 3.2-1.5 6.4-2 9.6-.9 5.4-1.5 5.8-7.4 4.3z"/><path d="m448.2 767.5c-2.2 0-4 0-6.3 0 1.2-5.7 2.3-11.2 3.5-16.6 6.2-27.9 12.4-55.8 18.5-83.7 5.5-24.8 11.1-49.7 16.6-74.5 5-22.5 9.9-45.1 14.9-67.6 5.5-24.8 11.1-49.7 16.6-74.5 5-22.7 10-45.3 15-68 5-22.4 10-44.8 14.9-67.2 4.9-22.3 9.8-44.5 14.8-66.8 5.6-25.3 11.3-50.7 16.9-76 5-22.4 9.9-44.8 14.8-67.2 5-22.5 10-45 15-67.5 4-17.9 7.9-35.8 11.8-53.7.9-4.3 1.4-4.6 7.2-3.3-58.1 262.2-116.1 524.4-174.2 786.6z"/><path d="m285.4-20.3c-56.1 263.3-112 525.4-167.9 787.8-2.1 0-4 0-6.3 0 1.3-6.1 2.5-12 3.7-17.8 3.4-16.1 6.9-32.3 10.4-48.4 3.9-18.5 7.8-36.9 11.8-55.4 3.9-18.5 7.9-36.9 11.8-55.4 4.5-21 9-42.1 13.4-63.1 4.5-20.9 8.9-41.8 13.4-62.7 4.5-21.2 9-42.3 13.5-63.5 4.9-23.1 9.8-46.2 14.7-69.2 5-23.3 9.9-46.7 14.9-70 5-23.6 10.1-47.2 15.1-70.8 5-23.3 10-46.7 14.9-70 5-23.5 10-46.9 15-70.4 4.8-22.7 9.7-45.4 14.5-68.1.9-4.5 4.1-1.5 7.1-3z"/><path d="m456.5 767.4c56-262.5 111.8-524.7 167.8-786.9h6.3c-1.2 6-2.4 11.8-3.6 17.5-3.5 16.1-7 32.3-10.4 48.4-3.9 18.3-7.7 36.7-11.6 55-4.5 21.2-9 42.3-13.6 63.5-5 23.3-9.9 46.7-14.9 70s-10 46.7-15 70c-5.1 23.7-10.1 47.4-15.2 71.2-4.5 21-8.9 42.1-13.4 63.1-5 23.3-10 46.7-15 70s-9.9 46.7-14.9 70c-4.9 23.2-9.9 46.4-14.9 69.6-5 23.5-10 46.9-15 70.4-3.2 15.3-6.5 30.5-9.7 45.8-.8 4.4-3.8 2.4-6.9 2.4z"/><path d="m632.6-19.6h6.2c-.7 3.9-1.3 7.6-2.1 11.3-7.1 34.5-14.3 69-21.4 103.6-7.1 34.5-14 69.1-21.1 103.7-6.5 32-13.2 63.9-19.8 95.9s-13 64-19.5 96c-5.5 26.8-11.1 53.7-16.6 80.5-6 29.4-12 58.8-18 88.3-5.5 26.7-11 53.4-16.5 80.1-5.5 27-11 54-16.5 80.9-3 14.8-6.2 29.5-9.1 44.3-.9 4.4-3.8 2.2-7 2.9 53.8-262.8 107.6-524.9 161.4-787.5z"/><path d="m102.7 767.9c53.9-262.9 107.6-525 161.3-787.3h6.4c-1.4 6.9-2.7 13.6-4 20.2-4.5 21.8-9 43.7-13.5 65.5-5 24.4-10 48.8-15 73.2-4.5 22.2-9.1 44.4-13.6 66.7-5 24.3-10 48.5-15 72.8-5 24.4-9.9 48.8-14.9 73.2-5 24.3-10 48.5-15 72.8s-9.9 48.6-14.8 72.8c-5 24.3-10 48.5-15 72.8-4 19.4-7.9 38.8-11.8 58.2-4.5 21.7-9 43.4-13.5 65.1-3.4 16.7-6.7 33.4-10.1 50.1-1.5 7.2-3 14.4-4.5 21.5-1.1 4-4.1 1.6-7 2.4z"/><path d="m94.5 767.9c1.6-8.5 3-16.2 4.5-23.8 3.4-17.4 6.9-34.7 10.3-52.1 4-20.3 8-40.6 12-61 3.9-19.8 7.8-39.6 11.7-59.4 4.4-22.6 8.9-45.3 13.3-67.9 3.9-20.1 7.9-40.1 11.9-60.2 4-20.3 8-40.7 12-61 4.4-22.5 8.8-45 13.2-67.6 3.9-19.9 7.8-39.9 11.8-59.8 4.4-22.5 8.9-45 13.3-67.5 4-20.5 8.1-40.9 12.1-61.4 4.4-22.1 8.7-44.3 13-66.4 4.9-25.2 9.8-50.4 14.8-75.7.8-4.3 1.2-4.4 7-3.3-1.6 8.5-3.2 16.9-4.9 25.4-4.5 23-9.1 46-13.6 69.1-5 25.3-10 50.7-15 76-4.5 23-9 46.1-13.5 69.1-4.4 22.5-8.9 45-13.4 67.5-3.9 19.9-7.8 39.9-11.7 59.8-4.4 22.4-8.8 44.8-13.2 67.2-4 20.5-8 40.9-12.1 61.4-4.4 22.4-8.8 44.8-13.3 67.2-4.5 23-9 46.1-13.6 69.1-3.9 19.9-7.9 39.9-11.8 59.8-3.4 17.4-6.8 34.7-10.2 52.1-2.7 13.6-5.3 27.3-8 40.9-.5 4-3.6 1.8-6.6 2.5z"/><path d="m647.2-19.1c-51.6 262.1-103.2 524.2-154.8 786.6-2.2 0-4.1 0-6.4 0 1.7-9 3.4-17.7 5.1-26.4 4.5-22.9 9-45.8 13.5-68.7s9.1-45.8 13.6-68.7c4.4-22.3 8.7-44.5 13.1-66.8 5-25.5 10-51 15-76.4 4-20.5 8-40.9 12-61.4 4.4-22.3 8.8-44.5 13.2-66.8 4.5-22.8 9-45.5 13.4-68.3 4.5-22.8 9-45.5 13.5-68.3 4-20.2 7.9-40.4 11.9-60.6 3.9-19.8 7.9-39.6 11.8-59.4 3.4-17.5 6.9-35 10.3-52.5 2.6-13.5 5.3-27 7.9-40.5.8-4.4 4-1.3 5.8-2.6.3.2.7.5 1.1.8z"/><path d="m234.5-19.6h6.2c-1 5.5-1.8 10.7-2.8 15.9-4 21.4-8 42.8-12.1 64.2-4.4 23.5-8.9 46.9-13.3 70.4-4 21-7.9 42-11.8 63-4 21-8 42-11.9 63-3.8 20.4-7.7 40.7-11.5 61.1-4 21.1-8 42.3-11.9 63.4-4 21-7.9 42-11.8 63-4.4 23.5-8.9 46.9-13.3 70.4-4 21.1-8 42.3-11.9 63.4-3.9 20.9-7.9 41.7-11.9 62.6-3.4 18.3-6.8 36.6-10.3 54.9-2.9 15.3-5.9 30.6-8.8 46-1.3 7-2.6 13.9-3.7 20.9-.9 5.5-1.2 5.7-7.4 4.7 49.3-262.3 98.7-524.4 148.2-786.9z"/><path d="m655.4-19.1c-1.6 8.6-3.1 17.2-4.7 25.8-2.9 15.5-5.9 30.9-8.8 46.4-3.4 18-6.7 36.1-10.1 54.1-3.4 18.3-6.9 36.6-10.4 54.9-4 21.1-8 42.3-12 63.4-4.4 23.3-8.8 46.7-13.2 70-4 21.1-8 42.3-12 63.4-3.9 20.6-7.8 41.2-11.7 61.9-4 21-7.9 42-11.9 63-4 21.1-7.9 42.3-11.9 63.4-5 26.4-10 52.8-15 79.2-4.5 23.6-8.9 47.2-13.3 70.8-4.3 22.7-8.5 45.4-12.8 68.1-.8 4.4-3.9 2.1-6.8 2.5.9-5.5 1.8-10.4 2.7-15.4 6.2-33.1 12.4-66.2 18.7-99.4 6.6-34.7 13.2-69.3 19.7-104 5.5-29.3 10.9-58.5 16.4-87.8 5-26.4 10.1-52.8 15-79.2 4.4-23.5 8.8-46.9 13.2-70.4 4.5-23.8 9.1-47.7 13.6-71.5 4.4-23.5 8.8-46.9 13.2-70.4 4-21.1 8-42.3 12-63.4 3.4-18 6.7-36.1 10.1-54.1 3.4-18.2 6.9-36.3 10.4-54.5.8-4.1 1.5-8.2 2.2-12.4 1-5.3 1.6-5.8 7.4-4.4z"/><path d="m657.5-19.5h6.4c-47.3 262.4-94.6 524.6-141.9 787-2.1 0-3.9 0-6.4 0 47.3-262.5 94.5-524.6 141.9-787z"/><path d="m84.2 767.5c-2.2 0-4 0-6.4 0 47.3-262.4 94.6-524.6 141.9-787h6.4c-47.3 262.5-94.6 524.7-141.9 787z"/><path d="m530.3 767.5c45.2-262.5 90.3-524.6 135.5-786.9h6.2c-.7 4.5-1.3 8.7-2 13-3.9 22.6-7.9 45.2-11.8 67.8-3.4 19.6-6.7 39.3-10.1 58.9-3.9 22.9-7.9 45.8-11.8 68.6-3.4 19.8-6.8 39.6-10.2 59.3-3.4 19.9-6.9 39.8-10.3 59.7-3.4 19.6-6.8 39.3-10.1 58.9-3.4 19.8-6.8 39.6-10.2 59.3-3.5 20.2-6.9 40.3-10.4 60.5-3.4 19.6-6.8 39.3-10.2 58.9-3.4 19.8-6.8 39.6-10.2 59.3-3.4 19.9-6.9 39.8-10.3 59.7-3.4 19.8-6.8 39.6-10.2 59.3-2.3 13.3-4.7 26.6-6.7 40-.8 4.8-3.6 4.1-7.2 3.7z"/><path d="m69.6 767.2c45.2-262.4 90.3-524.6 135.4-786.7h6.3c-1 6.4-1.9 12.4-3 18.5-6.3 36.5-12.5 72.9-18.8 109.3-6.6 38-13.2 76-19.8 114-5.5 32.1-10.9 64.1-16.4 96.2-5 28.9-10.1 57.9-15.1 86.8-5 29-9.8 57.9-14.8 86.9s-10.1 57.9-15.1 86.8c-5 29.1-9.9 58.2-14.9 87.3-3.9 22.9-8 45.7-12 68.6-1.6 9.4-3.3 18.8-4.9 28.3-.8 5-.7 5-6.9 4z"/><path d="m551.4 767.6c-2.2 0-3.9 0-6.2 0 .9-6.1 1.8-12 2.8-17.9 3.4-21 6.9-41.9 10.3-62.9s6.9-41.9 10.3-62.9 6.8-41.9 10.2-62.9c3.4-20.6 6.8-41.2 10.1-61.7 3.4-20.7 6.8-41.4 10.2-62.1 3.5-21.2 7-42.4 10.5-63.7 3.3-20.3 6.6-40.6 10-61 3.4-20.8 6.8-41.7 10.2-62.5 3.4-21 6.9-41.9 10.3-62.9 3.5-21.1 7-42.2 10.4-63.3 2.9-17.5 5.7-35 8.6-52.4 2.9-17.9 5.9-35.7 8.8-53.6 1.8-10.9 3.6-21.7 5.2-32.6.8-5.4.7-5.5 7.1-4.3-42.8 262.1-85.8 524.2-128.8 786.7z"/><path d="m61.3 767.8c43.1-262.8 86-525 129-787.3h6.2c-.9 5.8-1.7 11.4-2.6 17-4 24.7-8.1 49.4-12.2 74.2-3.9 23.9-7.9 47.9-11.9 71.8-3.3 20.3-6.6 40.6-10 61-4 24.6-8.1 49.2-12.1 73.8-3.4 20.8-6.7 41.7-10.1 62.5-3.9 23.9-7.9 47.9-11.8 71.8s-7.8 47.9-11.7 71.8c-3.9 23.7-7.8 47.4-11.7 71.1-3.5 21.2-6.9 42.5-10.4 63.7-3.4 20.8-6.9 41.7-10.3 62.5-2.9 17.3-5.7 34.7-8.5 52-1.7 10.4-3.4 20.7-4.9 31.1-.7 4.2-3.6 2.7-7 3z"/><path d="m682.3-19.5h6.3c-40.8 262.5-81.6 524.7-122.5 787-2.2 0-4 0-6.4 0 40.9-262.5 81.8-524.7 122.6-787z"/><path d="m175.5-19.5h6.4c-40.9 262.5-81.7 524.7-122.6 787-2.2 0-4 0-6.3 0 40.9-262.4 81.7-524.6 122.5-787z"/><path d="m51 767.6c-2.2 0-3.9 0-6.2 0 .7-5.5 1.4-10.7 2.2-15.9 2.4-16.2 4.9-32.4 7.3-48.6 2.9-19.5 5.7-38.9 8.5-58.4 3.5-23.5 6.9-47 10.4-70.5 3.4-23.2 6.9-46.4 10.3-69.7 3.4-23.2 6.8-46.5 10.2-69.7 3.4-23 6.8-45.9 10.2-68.9 2.9-19.7 5.8-39.5 8.7-59.2 3.4-23.2 6.9-46.4 10.4-69.7 2.8-19.2 5.6-38.4 8.5-57.6 3.4-23.4 6.9-46.7 10.4-70.1 3.3-22.6 6.7-45.2 10-67.7 2.8-19.2 5.7-38.4 8.3-57.6.7-4.8 3.4-3.8 7-3.5-38.8 262.4-77.4 524.6-116.2 787.1z"/><path d="m690.6-19.6c1.5-.1 2.5-.2 3.5-.2.8 0 1.5.1 2.8.2-38.7 262.5-77.4 524.8-116.1 787-2.3 0-3.9 0-6.4 0 38.8-262.3 77.5-524.4 116.2-787z"/><path d="m146.1-19.6h6.4c-36.6 262.4-73.2 524.6-109.7 786.9-1 .1-1.9.3-2.8.4-.9 0-1.8-.1-3.6-.2 36.6-262.4 73.1-524.6 109.7-787.1z"/><path d="m595.6 767.5c-2 0-3.7 0-6.4 0 36.6-262.3 73.1-524.5 109.6-787h6.3c-36.4 262.5-73 524.7-109.5 787z"/><path d="m28.2 767.2c34.4-262.3 68.7-524.4 103.1-786.7h6.3c-.5 4.5-1 8.7-1.6 13-4.5 33.9-9 67.9-13.5 101.8-4.5 34.1-8.8 68.2-13.3 102.3-3.9 29.9-8 59.8-11.9 89.7-4 30.2-7.8 60.4-11.8 90.6-3.9 29.9-7.9 59.8-11.9 89.7-3.9 30-7.8 60.1-11.7 90.2-3.4 25.9-6.9 51.8-10.3 77.6-2.9 22.2-5.8 44.5-8.7 66.7-2.7 20.5-5.3 41.1-8 61.6-.4 4.2-.8 4.5-6.7 3.5z"/><path d="m713.5-19.2c-34.4 262.3-68.7 524.3-103.1 786.7-2.1 0-4 0-6.3 0 .6-4.8 1.1-9.3 1.7-13.8 4.5-33.9 9-67.9 13.5-101.8 3.4-26 6.7-52 10.1-78.1 3.9-29.9 7.9-59.8 11.9-89.7 3.4-26 6.7-52 10.1-78.1 3.4-25.9 6.9-51.8 10.3-77.6 3.4-25.9 6.7-51.8 10.1-77.7 2.8-21.5 5.6-42.9 8.4-64.4 2.9-22.4 5.9-44.7 8.8-67.1 3-22.6 6-45.2 9-67.9 2.3-17.8 4.6-35.6 6.9-53.5.5-4.3 1.1-8.6 1.6-12.9.6-5 .8-5.1 7-4.1z"/><path d="m715.5-19.5h6.2c-.5 4.7-.9 9.1-1.5 13.4-4.5 36.2-9.1 72.4-13.5 108.5-4.4 35.9-8.7 71.9-13.1 107.8-3.4 27.6-6.9 55.2-10.3 82.8-3.4 27.7-6.7 55.5-10.2 83.2-3.4 28-7 56-10.4 84-3.3 27.2-6.6 54.4-10 81.6-3.4 27.9-6.9 55.7-10.3 83.6-2.9 23.4-5.7 46.9-8.6 70.3-2.8 22.7-5.5 45.3-8.3 68-.5 4.2-.9 4.4-6.8 3.3 32.3-262 64.5-524.1 96.8-786.5z"/><path d="m26.1 767.6c-2.3 0-4 0-6.2 0 .6-5.6 1.2-11 1.9-16.4 2.4-19.3 4.8-38.5 7.2-57.8 2.9-23.6 5.7-47.1 8.6-70.7 3.4-28 6.9-56 10.4-84 3.5-28.3 7-56.5 10.4-84.8 3.9-32 7.8-64.1 11.7-96.1 2.8-22.8 5.6-45.6 8.4-68.4 3.5-28.2 7-56.4 10.5-84.7 3.5-28 6.9-56 10.4-84 2.9-23.3 5.7-46.6 8.5-69.9 2.7-22.4 5.6-44.8 8.2-67.2.6-4.9 3.6-3.1 6.8-3.2-32.3 262.6-64.5 524.7-96.8 787.2z"/><path d="m723.8-19.5h6.3c-30.1 262.4-60.1 524.6-90.2 787-2 0-3.8 0-6.3 0 30-262.4 60.1-524.6 90.2-787z"/><path d="m101.8-19.6h6.3c-30.1 262.5-60.1 524.7-90.2 787.1-2.1 0-3.9 0-6.3 0 30.1-262.5 60.1-524.6 90.2-787.1z"/><path d="m732.1-19.6c1.5-.1 2.5-.2 3.6-.2.6 0 1.3.1 2.7.2-27.9 262.4-55.9 524.7-83.8 787-1.5.1-2.5.2-3.6.2-.8 0-1.5-.1-2.7-.3 27.9-262.2 55.8-524.4 83.8-786.9z"/><path d="m663.1 767.2c.9-9.7 1.7-19.3 2.7-28.8 4.7-47.5 9.3-95.1 14-142.6 3.4-34.5 6.9-68.9 10.3-103.4 2.9-29.2 5.7-58.5 8.5-87.8 4-40.2 8-80.4 12-120.6 3.4-34.2 6.6-68.4 10-102.6 3.5-35.1 7-70.2 10.5-105.4 2.4-24.2 4.6-48.3 7-72.5.6-6.3 1.2-12.5 1.8-18.8.5-5 .9-5.2 6.6-3.9-1 10.6-2 21.3-3 32-1.9 18.9-3.8 37.9-5.7 56.8-3 29.9-5.9 59.8-8.8 89.7-2.3 23.4-4.6 46.7-6.9 70.1-3 30-5.9 60.1-8.9 90.1-2.9 29.2-5.7 58.5-8.6 87.8-2.9 29.8-5.9 59.5-8.8 89.3-2.8 29-5.6 58-8.5 87-2.4 24.4-4.9 48.8-7.3 73.2-2.3 23.2-4.6 46.5-6.8 69.7-1.2 12.1-2.3 24.3-3.5 36.4-.4 5.2-.6 5.3-6.6 4.3z"/><path d="m87.1-19.4c1.1-.1 1.9-.3 2.6-.3 1 0 2.1.1 3.7.2-28 262.4-55.9 524.6-83.9 787-2 0-3.7 0-6.3 0 28-262.4 55.9-524.7 83.9-786.9z"/><path d="m748.7-19.4c1.1-.1 1.9-.3 2.6-.3 1 0 2.1.1 3.6.2-23.6 262.4-47.3 524.7-70.9 787.1-2.1 0-3.8 0-6.3 0 23.7-262.4 47.3-524.7 71-787z"/><path d="m698.8 767.6c-2.4 0-4 0-6.3 0 21.5-262.4 43-524.6 64.5-787h6.3c-21.6 262.3-43 524.5-64.5 787z"/><path d="m765.3-19.6h6c-.2 4.4-.3 8.7-.6 13-5 67.8-10.1 135.6-15.1 203.4-3.4 46.5-6.7 92.9-10.1 139.4-3.9 52.9-7.9 105.7-11.8 158.6-3.4 46.5-6.7 92.9-10.1 139.4-3.1 43.2-6.3 86.4-9.5 129.6-.3 4.4-.6 4.5-6.7 3.6 19.2-262.3 38.5-524.4 57.9-787z"/><path d="m728.3 767.5c-2.3 0-4 0-6.3 0 17.2-262.4 34.4-524.6 51.6-787h6.3c-17.3 262.4-34.5 524.6-51.6 787z"/><path d="m781.6-5.9c0 34.8 1.1 69.6-.3 104.3-1.9 48.8-5.6 97.4-8.5 146.2-1.9 33.1-3.7 66.3-5.6 99.4-3.6 63.5-7.2 127.1-10.9 190.6-3.9 67.6-7.9 135.2-11.8 202.8-.6 9.9-1.1 19.9-1.7 30.1-2.1 0-3.9 0-6.3 0 14.8-257.9 29.6-515.7 44.4-773.5.4 0 .5 0 .7.1z"/><path d="m781.6 163.9c0 41.1 1.2 82.2-.3 123.2-2.7 74.1-7.2 148.1-10.8 222.1-4 81.2-8.1 162.5-12.1 243.7-.2 4.7 0 9.4 0 14.4-2.7 0-4.5 0-7 0 9.9-201.2 19.8-402.3 29.6-603.5.3.1.5.1.6.1z"/><path d="m772.3 767.6c-2.1 0-3.8 0-6.1 0 5-121.8 10-243.4 14.9-365h.4c0 50.2 1.1 100.5-.3 150.7-1.9 71.3-5.8 142.6-8.9 214.3z"/></g></svg>