<svg enable-background="new 0 0 669.6 80" viewBox="0 0 669.6 80" xmlns="http://www.w3.org/2000/svg"><g fill="#1d1d1b"><path d="m213.6-61.6v28.1h-17.3v-77.7h29.7c8.5 0 14.1.9 18.2 2.5 8.9 3.5 14.7 11.2 14.7 22.5 0 9.8-3.7 16-10.9 20.3-6.3 3.7-13.5 4.2-23 4.2zm0-34.5v19.3h13.6c3.8 0 7-.2 9.4-1.4 3.3-1.4 5-3.8 5-8.2 0-4.8-1.8-7.2-5.1-8.6-2.4-.9-5.6-1.1-9.4-1.1z"/><path d="m331.5-65.2c0 11.4-1 16.3-4 21.4-4.9 8.7-15.5 11.7-27.2 11.7-11.8 0-22.3-3-27.2-11.7-3-5-4-9.9-4-21.4v-46h17.3v45.7c0 7 .5 9.3 1.5 12 1.9 4.5 6.2 6.5 12.5 6.5s10.6-2.1 12.6-6.5c1-2.3 1.4-4.8 1.4-12v-45.7h17.3v46z"/><path d="m364.8-111.2v62.2h31.1v15.5h-48.3v-77.7z"/><path d="m453.6-89.9c-5.4-5.1-12.3-8.5-20.1-8.5-7.2 0-12.2 3-12.2 7.9 0 5 3.5 7.1 10.6 8.5l12.6 2.5c14.4 2.9 23.4 8.6 23.4 22.3 0 16.1-14.3 25-32.7 25-17.9 0-30.3-9.6-35.1-16.2l12-10.3c4.8 6.4 12.8 12.1 23.5 12.1 9 0 14.3-3.5 14.3-9.3 0-5.4-4.6-6.9-11.7-8.1l-10.1-1.9c-14.2-2.7-24.9-7.9-24.9-23.1.1-13.9 13-23.6 30.1-23.6 13.7 0 24.7 5.1 31.3 12.2z"/><path d="m496.6-96v15.3h33.8v15.1h-33.8v16.8h40.1v15.3h-57.2v-77.7h54.5v15.2z"/><path d="m442.6 36.8h82.9v6.8h-82.9z" transform="matrix(.3217 -.9468 .9468 .3217 290.2259 485.5784)"/><path d="m455.8 39.7h82.9v1h-82.9z" transform="matrix(.3213 -.947 .947 .3213 299.3622 498.1842)"/><path d="m466.4 39.7h82.9v1h-82.9z" transform="matrix(.3213 -.947 .947 .3213 306.568 508.189)"/><path d="m476.9 39.7h82.9v1h-82.9z" transform="matrix(.3213 -.947 .947 .3213 313.7739 518.1931)"/><path d="m487.5 39.8h82.9v1h-82.9z" transform="matrix(.3213 -.947 .947 .3213 320.8685 528.231)"/><path d="m498.1 39.7h82.9v1h-82.9z" transform="matrix(.3213 -.947 .947 .3213 328.0742 538.2359)"/><path d="m508.7 39.7h82.9v1h-82.9z" transform="matrix(.3213 -.947 .947 .3213 335.2799 548.2408)"/><path d="m519.2 39.7h82.9v1h-82.9z" transform="matrix(.3213 -.947 .947 .3213 342.4859 558.2448)"/><path d="m529.8 39.8h82.9v1h-82.9z" transform="matrix(.3213 -.947 .947 .3213 349.5804 568.2827)"/><path d="m540.4 39.7h82.9v1h-82.9z" transform="matrix(.3213 -.947 .947 .3213 356.7862 578.2877)"/><path d="m551 39.7h82.9v1h-82.9z" transform="matrix(.3213 -.947 .947 .3213 363.9919 588.2925)"/><path d="m561.5 39.7h82.9v1h-82.9z" transform="matrix(.3213 -.947 .947 .3213 371.1979 598.2965)"/><path d="m572.1 39.8h82.9v1h-82.9z" transform="matrix(.3213 -.947 .947 .3213 378.2925 608.3344)"/><path d="m582.7 39.7h82.9v1h-82.9z" transform="matrix(.3213 -.947 .947 .3213 385.4982 618.3393)"/><path d="m593.3 39.7h82.9v1h-82.9z" transform="matrix(.3213 -.947 .947 .3213 392.7038 628.3443)"/><path d="m603.8 39.8h82.9v1h-82.9z" transform="matrix(.3213 -.947 .947 .3213 399.7983 638.3821)"/><path d="m614.4 39.8h82.9v1h-82.9z" transform="matrix(.3213 -.947 .947 .3213 407.0044 648.3861)"/><path d="m-27.9 39.8h82.9v1h-82.9z" transform="matrix(.3213 -.947 .947 .3213 -28.9487 40.1097)"/><path d="m-17.4 39.7h82.9v1h-82.9z" transform="matrix(.3213 -.947 .947 .3213 -21.7429 50.1146)"/><path d="m-6.8 39.7h82.9v1h-82.9z" transform="matrix(.3213 -.947 .947 .3213 -14.5369 60.1187)"/><path d="m3.8 39.8h82.9v1h-82.9z" transform="matrix(.3213 -.947 .947 .3213 -7.4424 70.1566)"/><path d="m14.4 39.7h82.9v1h-82.9z" transform="matrix(.3213 -.947 .947 .3213 -.2367 80.1614)"/><path d="m24.9 39.7h82.9v1h-82.9z" transform="matrix(.3213 -.947 .947 .3213 6.9691 90.1664)"/><path d="m35.5 39.8h82.9v1h-82.9z" transform="matrix(.3213 -.947 .947 .3213 14.0636 100.2043)"/><path d="m46.1 39.8h82.9v1h-82.9z" transform="matrix(.3213 -.947 .947 .3213 21.2696 110.2083)"/><path d="m56.7 39.7h82.9v1h-82.9z" transform="matrix(.3213 -.947 .947 .3213 28.4753 120.2132)"/><path d="m67.2 39.7h82.9v1h-82.9z" transform="matrix(.3213 -.947 .947 .3213 35.681 130.2181)"/><path d="m77.8 39.8h82.9v1h-82.9z" transform="matrix(.3213 -.947 .947 .3213 42.7755 140.256)"/><path d="m88.4 39.8h82.9v1h-82.9z" transform="matrix(.3213 -.947 .947 .3213 49.9816 150.2601)"/><path d="m98.9 39.7h82.9v1h-82.9z" transform="matrix(.3213 -.947 .947 .3213 57.1872 160.2649)"/><path d="m109.5 39.7h82.9v1h-82.9z" transform="matrix(.3213 -.947 .947 .3213 64.393 170.2699)"/><path d="m120.1 39.8h82.9v1h-82.9z" transform="matrix(.3213 -.947 .947 .3213 71.4875 180.3078)"/><path d="m130.7 39.8h82.9v1h-82.9z" transform="matrix(.3213 -.947 .947 .3213 78.6935 190.3118)"/><path d="m251.9.3h18.8l-23.9 79.4h-22.4l-23.5-79.4h18.4l13.4 49.4c1.4 5.7 2.9 11 2.9 11h.1s1.3-5.4 2.7-10.9z"/><path d="m297.8 79.7h-17.6v-79.4h17.6z"/><path d="m314.9 79.7v-79.4h33.8c9.7 0 14.2 1 18.1 3 6.4 3.5 10.3 9.2 10.3 17.5 0 9.1-6 14.6-12.5 16.8v.1c8.3 2.5 15.4 8.4 15.4 19.6 0 8.9-4 15.2-10.7 18.9-4.1 2.2-8.5 3.4-19 3.4h-35.4zm41.7-62.9c-2.1-1.4-4.7-1.8-10-1.8h-14.4v16.9h14.2c6.1 0 8.5-.2 10.7-2.2 1.5-1.4 2.5-3.7 2.5-6.5.1-2.9-1.2-5.3-3-6.4zm-24.4 48.1h14.7c6.2 0 9.1-.2 11.3-1.8 2.3-1.4 3.7-4.4 3.7-8.3 0-4.4-2.2-7.5-5.7-8.6-2.1-.6-4.8-.8-9.3-.8h-14.7z"/><path d="m410.3 15.8v15.6h34.5v15.4h-34.5v17.2h41v15.6h-58.5v-79.3h55.8v15.5z"/></g><text fill="#fff" font-family="Theinhardt-Bold" font-size="38" transform="translate(547.7462 -62.1143)">/ MOTION</text></svg>